<?xml version="1.0" standalone="no"?>
<!DOCTYPE svg PUBLIC "-//W3C//DTD SVG 1.1//EN" "http://www.w3.org/Graphics/SVG/1.1/DTD/svg11.dtd" >
<svg xmlns="http://www.w3.org/2000/svg">
<metadata></metadata>
<defs>
<font id="polyregular" horiz-adv-x="1372" >
<font-face units-per-em="2048" ascent="1638" descent="-410" />
<missing-glyph horiz-adv-x="501" />
<glyph unicode="&#xfb01;" horiz-adv-x="1351" d="M92 80q100 20 122 41.5t22 75.5v632h-134l-8 89l101 24q27 6 35 22.5t10 51.5t7 69.5t20.5 95t37 110.5t60 105.5t90.5 94.5q115 90 288 90q125 0 277 -45q0 -139 -35 -248l-111 -12q-31 166 -49 174q-45 23 -135 23q-135 0 -202.5 -147.5t-67.5 -356.5h242 q141 0 291.5 5t152.5 5l22 -21v-811q0 -25 11.5 -31.5t29.5 -11.5l101 -24l-8 -80h-449l-12 80q100 20 121.5 41.5t21.5 75.5v587q0 45 -33.5 63.5t-125 18.5t-365.5 -24v-695q0 -20 8 -29t37 -14l133 -24l-8 -80h-486z" />
<glyph unicode="&#xfb02;" horiz-adv-x="1337" d="M92 80q100 20 122 41.5t22 75.5v632h-134l-8 89l101 24q27 6 35 22.5t14 89t36.5 166t94 178.5t179.5 134t261.5 49t263.5 -18l35 -54v-1362q0 -25 10.5 -31.5t30.5 -11.5l100 -24l-8 -80h-448l-13 80q100 20 122 41.5t22 75.5v1189q0 92 -170 92.5t-255 -138t-85 -386.5 h242l-17 -96l-225 -31v-680q0 -20 8 -29t37 -14l133 -24l-8 -80h-486z" />
<glyph unicode="&#xfb03;" horiz-adv-x="2039" d="M92 80q100 20 122 41.5t22 75.5v632h-134l-8 89l101 24q27 6 35 22.5t11 57.5t11 90t35.5 128t68.5 136.5t115 100.5t175.5 43t219.5 -45q0 -127 -28 -228l-101 -12q-31 143 -49 154q-23 23 -84 22q-96 0 -140 -124t-44 -318h442q41 0 53.5 18.5t16.5 66.5t16.5 104 t47 138t86 140.5t142.5 101.5t211.5 43t272.5 -45q0 -139 -35 -248l-110 -12q-31 166 -50 174q-45 23 -135 23q-135 0 -202.5 -147.5t-67.5 -356.5h242q141 0 291.5 5t152.5 5l23 -21v-811q0 -25 10 -31.5t31 -11.5l100 -24l-8 -80h-449l-12 80q100 20 121.5 41.5t21.5 75.5 v587q0 45 -33.5 63.5t-125 18.5t-365.5 -24v-695q0 -25 10 -31.5t31 -11.5l137 -24l-8 -80h-485l-13 80q100 20 122 41.5t22 75.5v657q-373 0 -504 -12v-695q0 -20 8 -29t37 -14l133 -24l-8 -80h-486z" />
<glyph unicode="&#xfb04;" horiz-adv-x="2025" d="M92 80q100 20 122 41.5t22 75.5v632h-134l-8 89l101 24q27 6 35 22.5t11 57.5t11 90t35.5 128t68.5 136.5t115 100.5t175.5 43t219.5 -45q0 -127 -28 -228l-101 -12q-29 133 -50 154.5t-83 21.5q-96 0 -140 -128t-44 -329h442q37 0 50.5 17.5t15.5 52.5q68 557 588 557 q133 0 251 -18l35 -54v-1362q0 -25 10.5 -31.5t30.5 -11.5l101 -24l-9 -80h-448l-12 80q100 20 121.5 41.5t21.5 75.5v1189q0 92 -170 92.5t-255 -138t-85 -386.5h242l-17 -96l-225 -31v-680q0 -25 10 -31.5t31 -11.5l137 -24l-8 -80h-485l-13 80q100 20 122 41.5t22 75.5 v643q-373 0 -504 -13v-680q0 -20 8 -29t37 -14l133 -24l-8 -80h-486z" />
<glyph horiz-adv-x="2048" />
<glyph horiz-adv-x="2048" />
<glyph unicode="&#xd;" horiz-adv-x="681" />
<glyph unicode=" "  horiz-adv-x="501" />
<glyph unicode="&#x09;" horiz-adv-x="501" />
<glyph unicode="&#xa0;" horiz-adv-x="501" />
<glyph unicode="!" horiz-adv-x="462" d="M82 90q0 51 31.5 82t87.5 31q117 0 116 -109q0 -47 -31.5 -79.5t-83.5 -32.5t-86 28.5t-34 79.5zM131 1378l211 62l25 -39l-107 -1039l-102 5z" />
<glyph unicode="&#x22;" horiz-adv-x="677" d="M100 1542l156 51l27 -39l-84 -501l-88 6zM410 1542l155 51l27 -39l-84 -501l-88 6z" />
<glyph unicode="#" horiz-adv-x="1128" d="M72 455v120h215l41 312h-213v121h227l55 411h119l-55 -411h270l55 411h119l-55 -411h205v-121h-219l-41 -312h217v-120h-232l-59 -455h-121l59 455h-268l-59 -455h-121l59 455h-198zM406 575h270l41 312h-271z" />
<glyph unicode="$" horiz-adv-x="983" d="M113 147.5q0 79.5 18 212.5l117 11q18 -158 26.5 -192t26.5 -44q43 -27 131 -39v381q-236 98 -289 211q-27 51 -26 119q0 121 85 205t230 108v248h117v-238q154 -2 299 -57q2 -18 2 -100t-29 -185l-102 -12q-14 188 -49 213q-39 25 -121 29v-361q254 -106 307 -215 q27 -55 27 -123q0 -123 -89 -214t-245 -115v-252h-117v244q-195 4 -315 55q-4 31 -4 110.5zM281 879q0 -100 151 -170v307q-152 -14 -151 -137zM549 94q72 6 114 45t42 105q0 102 -156 182v-332z" />
<glyph unicode="%" horiz-adv-x="1654" d="M51 1002.5q0 177.5 95.5 306.5t253 129t246.5 -121t89 -297t-95 -305t-253 -129t-247 119.5t-89 297zM219 1028q0 -176 50 -265t137 -89q162 0 161 307q0 174 -50 271.5t-132 97.5q-166 0 -166 -322zM291 0l915 1419h133l-913 -1419h-135zM920 398q0 177 95 306.5 t252.5 129.5t247 -121t89.5 -297t-95.5 -305t-253 -129t-246.5 119.5t-89 296.5zM1087 424q0 -176 50.5 -265t136.5 -89q162 0 162 307q0 174 -50.5 271t-132.5 97q-166 0 -166 -321z" />
<glyph unicode="&#x26;" horiz-adv-x="1402" d="M82 336q0 291 283 414q-168 180 -168 341.5t105.5 254t279.5 92.5q129 0 262 -52q2 -16 2 -91.5t-27 -159.5l-94 -11q-14 160 -46 182.5t-138 22.5q-182 0 -183 -168q0 -66 37 -132t148 -185l426 -461q92 170 92 352q0 78 -37 108.5t-160 45.5l13 80h466l9 -80l-127 -25 q-41 -8 -41 -53q-10 -299 -135 -514l147 -158q51 -51 166 -59l-12 -80h-295l-131 139q-168 -158 -414 -157q-201 0 -314.5 100t-113.5 254zM295 399q0 -125 73.5 -206.5t217 -81.5t264.5 110l-410 445q-145 -84 -145 -267z" />
<glyph unicode="'" horiz-adv-x="368" d="M100 1542l156 51l27 -39l-84 -501l-88 6z" />
<glyph unicode="(" horiz-adv-x="595" d="M86 599q0 294 129 549t287 411l69 -58q-139 -162 -228 -406.5t-89 -494.5t88 -507t229 -423l-69 -57q-160 160 -288 426t-128 560z" />
<glyph unicode=")" horiz-adv-x="595" d="M25 -330q141 166 229 423t88 507t-89 494.5t-228 406.5l69 58q158 -156 287 -411t129 -549t-128 -560t-288 -426z" />
<glyph unicode="*" horiz-adv-x="800" d="M51 1010l10 26l220 88q39 16 61 17v16q-27 0 -61 12l-199 84l22 127l29 4l186 -145q39 -33 46 -45l14 8q-16 33 -19 62l-26 215l121 45l18 -25l-33 -233q-8 -49 -16 -62l14 -8q12 25 41 47l174 129l97 -82l-11 -26l-217 -90q-39 -16 -61 -17v-16q37 0 59 -11l199 -86 l-23 -124l-28 -5l-187 144q-39 33 -45 45l-14 -8q18 -37 20 -60l27 -215l-121 -43l-18 23l32 233q8 49 17 62l-14 8q-12 -27 -43 -47l-172 -129z" />
<glyph unicode="+" horiz-adv-x="954" d="M92 500v108h334v342h102v-342h334v-108h-334v-350h-102v350h-334z" />
<glyph unicode="," horiz-adv-x="516" d="M131 -227q84 100 84 184q0 47 -36 90t-36 85t34 70.5t85 28.5t88 -44t37 -124q0 -184 -201 -344z" />
<glyph unicode="-" horiz-adv-x="604" d="M70 416l24 151l447 29l-33 -127z" />
<glyph unicode="." horiz-adv-x="516" d="M133 101.5q0 56.5 34 93t89 36.5q127 0 127 -122q0 -54 -35 -90.5t-90 -36.5t-90 31.5t-35 88z" />
<glyph unicode="/" horiz-adv-x="800" d="M31 -123l598 1704h141l-596 -1704h-143z" />
<glyph unicode="0" horiz-adv-x="1093" d="M66 544q0 265 130 425.5t358 160.5t351 -149.5t123 -414.5t-130 -424.5t-358.5 -159.5t-351 148.5t-122.5 413.5zM264 571q0 -211 76.5 -346t226.5 -135q119 0 176 72q37 47 61.5 151.5t24.5 227.5q0 211 -76.5 346t-226.5 135q-119 0 -176 -72q-37 -47 -61.5 -151.5 t-24.5 -227.5z" />
<glyph unicode="1" horiz-adv-x="724" d="M78 1036q61 27 184 54.5t191 29.5l22 -20v-953q0 -25 11.5 -31.5t29.5 -11.5l158 -24l-8 -80h-562l-12 80q117 18 158 42.5t41 74.5v628q0 102 -9.5 123t-49 21t-138.5 -11z" />
<glyph unicode="2" horiz-adv-x="968" d="M61 0v109q360 293 426 370q109 127 125.5 186.5t16.5 110.5q0 106 -61.5 176t-166 70t-143.5 -31q-25 -20 -47 -221l-111 12q-16 74 -16 154t2 100q119 94 327 94t311 -88t103 -238.5t-127 -302t-403 -341.5l4 -15l123 5q264 8 298 15t77 159l94 -9q2 -18 2 -61 q0 -141 -33 -254h-801z" />
<glyph unicode="3" horiz-adv-x="960" d="M88 945q0 71 2 91q143 94 329.5 94t294 -75.5t107.5 -192.5t-57 -196.5t-146 -120.5l3 -17q117 -23 192.5 -94.5t75.5 -193.5q0 -205 -215 -346.5t-561 -176.5l-11 115q262 35 417 128t155 239q0 96 -72 153.5t-217 57.5q-55 0 -106 -9l6 99q178 29 260 113.5t82 185 t-58.5 162t-158.5 61.5q-133 0 -160 -47q-25 -39 -35 -205l-109 12q-18 92 -18 163z" />
<glyph unicode="4" horiz-adv-x="1093" d="M16 217l650 877q115 27 176 26l22 -20v-889l209 -4l-18 -117h-191v-340q-66 -12 -162 -12l-22 20v332h-614l-3 2zM162 236l8 -15l510 -8v641q0 43 4 61l-12 7l-473 -641q-17 -25 -37 -45z" />
<glyph unicode="5" horiz-adv-x="987" d="M102 -168q285 37 450 143.5t165 262.5q0 98 -75 166.5t-208 68.5t-260 -47l-45 53l45 621h524q10 0 17 6q16 20 39 143l104 -14q-8 -193 -29 -301h-532l-25 -367q102 35 228 35q203 0 316.5 -87t113.5 -236q0 -215 -225 -372t-592 -190z" />
<glyph unicode="6" horiz-adv-x="1056" d="M92 504q0 332 211 573.5t510 315.5l41 -84q-451 -188 -539 -576l17 -6q104 135 265 135t273.5 -119.5t112.5 -309t-125 -320.5t-328.5 -131t-320.5 141t-117 381zM287 520q0 -438 284 -438q87 0 140 57q78 84 77.5 246t-59.5 249t-149 87q-43 0 -112 -14.5t-114 -44.5 q-68 -45 -67 -142z" />
<glyph unicode="7" horiz-adv-x="921" d="M47 935q0 89 12 165h842v-123q-436 -680 -475 -1251q-23 -6 -59 -7q-105 0 -156 33q33 203 192.5 557.5t356.5 624.5l-4 14l-363 -6q-137 -4 -184 -8q-16 -2 -27.5 -29.5t-36.5 -134.5l-94 10q-4 66 -4 155z" />
<glyph unicode="8" horiz-adv-x="1062" d="M66 305q0 199 198 332q55 33 78 33v18q-12 0 -33 10q-192 117 -192 316q0 164 116.5 268t298.5 104q121 0 254 -59q70 -33 115 -100.5t45 -161.5q0 -184 -160 -303q-47 -33 -75 -33v-18q12 0 32 -11q123 -63 188.5 -141t65.5 -194q0 -170 -132 -276.5t-345 -106.5 q-143 0 -282 55q-76 31 -124 100.5t-48 167.5zM237.5 337q0.5 -122 82 -182.5t218 -60.5t202 68.5t65.5 142.5t-26.5 121t-84.5 84q-88 57 -219 108q-14 6 -20 9q-35 -12 -97 -64q-121 -104 -120.5 -226zM295 1073q0 -72 23.5 -116t74.5 -80q84 -59 209 -113 q172 117 172 283q0 115 -70.5 176t-184 61t-169 -69.5t-55.5 -141.5z" />
<glyph unicode="9" horiz-adv-x="1056" d="M74 684q0 186 126 316t326.5 130t319.5 -144t119 -382q0 -291 -172 -553q-86 -131 -240 -222t-352 -110l-15 93q238 55 369 187t186 370l-16 6q-96 -119 -259 -119t-277.5 121t-114.5 307zM268 711.5q0 -146.5 75 -230.5t174 -84t183 45q49 27 60 76q12 49 12 121 q0 176 -68.5 283.5t-209.5 107.5q-113 0 -169.5 -86t-56.5 -232.5z" />
<glyph unicode=":" horiz-adv-x="516" d="M133 101.5q0 56.5 34 93t89 36.5q127 0 127 -122q0 -54 -35 -90.5t-90 -36.5t-90 31.5t-35 88zM133 869.5q0 56.5 34 93t89 36.5q127 0 127 -122q0 -54 -35 -90.5t-90 -36.5t-90 31.5t-35 88z" />
<glyph unicode=";" horiz-adv-x="516" d="M131 -227q84 100 84 184q0 47 -36 90t-36 85t34 70.5t85 28.5t88 -44t37 -124q0 -184 -201 -344zM133 869.5q0 56.5 34 93t89 36.5q127 0 127 -122q0 -54 -35 -90.5t-90 -36.5t-90 31.5t-35 88z" />
<glyph unicode="&#x3c;" horiz-adv-x="1058" d="M53 461v102l951 471v-141l-791 -381l791 -379v-141z" />
<glyph unicode="=" horiz-adv-x="954" d="M92 354v109h770v-109h-770zM92 635v108h770v-108h-770z" />
<glyph unicode="&#x3e;" horiz-adv-x="1058" d="M53 -8v141l791 379l-791 381v141l951 -471v-102z" />
<glyph unicode="?" horiz-adv-x="868" d="M72 1260q0 71 2 92q59 35 161.5 60.5t198.5 25.5q168 0 276.5 -83t108.5 -237q0 -80 -31.5 -147.5t-80 -110.5t-104.5 -86t-103 -74q-113 -74 -113 -159q1 -41 21 -123l-97 -29q-94 131 -94 217q0 102 152 201q61 41 122.5 84t105.5 104.5t44 148.5t-72.5 136t-169 49 t-157.5 -33q-16 -8 -24.5 -38.5t-18.5 -143.5l-111 12q-16 63 -16 134zM250 92q0 51 31.5 81t89.5 30q115 0 114 -105q0 -51 -31.5 -83.5t-84 -32.5t-86 29.5t-33.5 80.5z" />
<glyph unicode="@" horiz-adv-x="1628" d="M63 379q0 365 231.5 597t596.5 232q291 0 482.5 -147.5t191.5 -427.5q0 -147 -64.5 -316.5t-185.5 -289.5q-215 -23 -244 -29q-90 14 -90 135q0 39 10 107l13 86l-15 4q-129 -326 -338 -326q-221 0 -221 330q0 256 129 427t320 171q88 0 204 -39l82 20l39 -24 q-2 -18 -28 -172q-53 -326 -53.5 -437.5t13 -144.5t59.5 -33t91 61.5t70 149.5q53 190 53 322q0 199 -148.5 335t-400.5 136q-162 0 -286.5 -60.5t-196.5 -162.5q-145 -203 -146 -488q0 -535 535 -534q74 0 246 41q0 -12 11 -39t11 -43l-18 -25q-217 -43 -316 -43 q-319 0 -478 169t-159 458zM604 346q0 -217 98 -217q70 0 143 107.5t119 258t52 279.5q-106 53 -193.5 53t-113.5 -30q-43 -53 -74 -190.5t-31 -260.5z" />
<glyph unicode="A" d="M14 82q78 20 95.5 32.5t33.5 55.5l459 1268h170l469 -1301q10 -31 121 -51l-8 -86h-477l-13 82q143 29 144 68q0 16 -9 43l-90 266h-530l-105 -291q-8 -25 -8 -34t13 -11l145 -39l-8 -84h-387zM418 567h456l-200 576q-14 43 -15 59h-20z" />
<glyph unicode="B" horiz-adv-x="1267" d="M90 80q109 18 132.5 40.5t23.5 86.5v1005q0 63 -23.5 86t-132.5 41l12 80h541q223 0 342 -89t119 -249q0 -127 -68.5 -214t-146.5 -111v-15q131 -25 219 -123t88 -238t-122 -260t-374 -120h-598zM444 199q0 -59 31 -72q31 -20 125 -21q197 0 283 70t86 201 q0 190 -154 262q-76 37 -172 37h-199v-477zM444 784h115q168 0 247 73t79 200q0 254 -303 254h-138v-527z" />
<glyph unicode="C" horiz-adv-x="1269" d="M72 678q0 233 96 416q113 215 338 299q125 45 260 45t260 -20.5t164 -37.5q12 -76 12 -158.5t-4 -185.5l-117 -16q-45 238 -80 262q-18 14 -95 30.5t-152 16.5q-225 0 -340 -166t-115 -436q0 -319 145.5 -475t360.5 -156q78 0 146.5 18.5t90 35t66.5 260.5l113 -4 q0 -156 -23 -332q-63 -35 -191 -63.5t-262 -28.5q-334 0 -503.5 196.5t-169.5 499.5z" />
<glyph unicode="D" horiz-adv-x="1460" d="M90 80q109 18 132.5 40.5t23.5 86.5v1005q0 63 -23.5 86t-132.5 41l12 80h641q176 0 305.5 -56t200.5 -155q139 -188 140 -454q0 -293 -156 -510q-78 -111 -216 -177.5t-319 -66.5h-596zM444 190q0 -45 43 -53q138 -28 213 -28h5q227 0 341.5 161.5t114.5 431.5 q0 170 -44 295t-118 191q-139 123 -303 123h-252v-1121z" />
<glyph unicode="E" horiz-adv-x="1212" d="M90 80q109 18 132.5 40.5t23.5 86.5v1005q0 63 -23.5 86t-132.5 41l12 80h955q12 -76 12 -150.5t-4 -168.5l-117 -15q-29 141 -41 177t-28 38q-49 6 -125 9l-310 6v-551h308q27 0 65 145l64 -6q0 -150 5 -209t6 -71.5t8 -59.5t9 -65l-73 -13q-33 117 -44.5 143.5 t-25.5 26.5h-322v-551l183 2q231 0 282 25q6 4 9 4q35 10 90 242l112 -10q2 -35 2 -124t-22 -243h-998z" />
<glyph unicode="F" horiz-adv-x="1118" d="M90 80q109 18 132.5 40.5t23.5 86.5v1005q0 63 -23.5 86t-132.5 41l12 80h955q12 -76 12 -150.5t-4 -168.5l-117 -15q-29 141 -41 177t-28 38q-49 6 -125 9l-310 6v-570h316q51 0 90 146l63 -6q0 -150 5.5 -209.5t6.5 -71.5t8 -59t9 -66l-74 -12q-49 170 -94 170h-330 v-479q0 -49 41 -54l207 -24l-8 -80h-582z" />
<glyph unicode="G" horiz-adv-x="1394" d="M72 678q0 233 96 416q113 215 338 299q125 45 260 45t260 -20.5t164 -37.5q12 -76 12 -158.5t-4 -185.5l-117 -16q-45 238 -80 262q-18 14 -95 30.5t-152 16.5q-225 0 -340 -166t-115 -436q0 -319 145.5 -475t360.5 -156q113 0 199 33v285q0 63 -24 85.5t-132 41.5l12 80 h479l9 -80l-105 -25q-41 -8 -41 -53v-387q-68 -35 -195.5 -64.5t-261.5 -29.5q-334 0 -503.5 196.5t-169.5 499.5z" />
<glyph unicode="H" horiz-adv-x="1570" d="M90 80q109 18 132.5 40.5t23.5 86.5v1005q0 63 -23.5 86t-132.5 41l12 80h502l8 -80l-127 -24q-41 -8 -41 -53v-469h682v419q0 63 -23.5 86t-131.5 41l12 80h502l8 -80l-127 -24q-41 -8 -41 -53v-1104q0 -45 41 -54l127 -24l-8 -80h-502l-12 80q109 18 132 40.5t23 86.5 v463h-682v-512q0 -45 41 -54l127 -24l-8 -80h-502z" />
<glyph unicode="I" horiz-adv-x="690" d="M90 80q109 18 132.5 40.5t23.5 86.5v1005q0 63 -23.5 86t-132.5 41l12 80h502l8 -80l-127 -24q-41 -8 -41 -53v-1104q0 -45 41 -54l127 -24l-8 -80h-502z" />
<glyph unicode="J" horiz-adv-x="688" d="M-49 -155.5q0 46.5 39 108.5q96 -23 135 -23t65 17q59 41 60 377v888q0 61 -32 84t-144 43l12 80h543l8 -80l-148 -24q-40 -8 -40 -41v-1012q0 -186 -105.5 -346t-216.5 -160q-88 0 -170 17q-6 25 -6 71.5z" />
<glyph unicode="K" horiz-adv-x="1335" d="M90 80q109 18 132.5 40.5t23.5 86.5v1005q0 63 -23.5 86t-132.5 41l12 80h502l8 -80l-127 -24q-41 -8 -41 -53v-541l494 524q31 31 31 49q0 37 -156 43l12 82h435l8 -86q-74 0 -125 -51q-6 -6 -19.5 -20.5t-15.5 -16.5l-455 -483l494 -598q33 -41 73 -59.5t115 -24.5 l-12 -80h-311l-498 612l-70 -73v-381q0 -45 41 -54l113 -24l-8 -80h-488z" />
<glyph unicode="L" horiz-adv-x="1142" d="M90 80q109 18 132.5 40.5t23.5 86.5v1005q0 63 -23.5 86t-132.5 41l12 80h502l8 -80l-127 -24q-41 -8 -41 -53v-1158l183 2q227 4 266 15q33 10 115 315l112 -10q2 -35 2 -142.5t-22 -283.5h-998z" />
<glyph unicode="M" horiz-adv-x="1869" d="M76 80q111 20 140.5 42.5t29.5 84.5v1005q0 63 -23.5 86t-132.5 41l12 80h430l394 -1077q10 -33 14 -51h21q2 23 10 41l399 1087h371l8 -80l-86 -24q-39 -12 -39 -47v-1110q0 -45 41 -54l127 -24l-8 -80h-506l-12 80q100 18 129.5 39.5t29.5 70.5v936q0 47 7 78h-17 l-432 -1163h-147l-437 1167h-16v-1003q0 -49 19.5 -74t70.5 -33l100 -18l-8 -80h-477z" />
<glyph unicode="N" horiz-adv-x="1587" d="M90 80q109 18 132.5 40.5t23.5 86.5v1005q0 63 -23.5 86t-132.5 41l12 80h158h121h113l700 -1032h14v784q0 92 -33.5 123t-162.5 45l12 80h481l8 -80l-127 -24q-41 -8 -40 -53v-1262h-121h-6l-820 1212h-16v-1007q0 -51 19.5 -76t70.5 -31l143 -18l-8 -80h-506z" />
<glyph unicode="O" horiz-adv-x="1456" d="M72 697.5q0 332.5 178 536.5t488.5 204t478 -187.5t167.5 -520.5t-178 -540.5t-488 -207.5t-478 191.5t-168 524zM299 707.5q0 -263.5 114.5 -440.5t331.5 -177q111 0 194 51.5t130 141.5q88 174 88 438t-115.5 436t-330.5 172q-111 0 -194 -50t-128 -138 q-90 -170 -90 -433.5z" />
<glyph unicode="P" horiz-adv-x="1144" d="M90 80q109 18 132.5 40.5t23.5 86.5v1005q0 63 -23.5 86t-132.5 41l12 80h572q217 0 325.5 -105.5t108.5 -298t-142.5 -329.5t-414.5 -137h-107v-391q0 -49 41 -54l207 -24l-8 -80h-582zM444 657h91q135 0 235 64q119 76 119 278q0 188 -98 256q-82 55 -179 56h-127 q-41 0 -41 -49v-605z" />
<glyph unicode="Q" horiz-adv-x="1456" d="M72 707.5q0 322.5 178 526.5t488.5 204t478 -187.5t167.5 -505.5q0 -272 -111.5 -462.5t-316.5 -262.5v-8q39 -14 141.5 -89t149.5 -75t127 31l47 -74q-45 -37 -73 -55q-84 -61 -158 -61t-146.5 44t-127 97t-130 101.5t-147.5 54.5q-272 23 -419.5 211t-147.5 510.5z M299 707.5q0 -263.5 114.5 -440.5t331.5 -177q111 0 194 51.5t130 141.5q88 174 88 438t-115.5 436t-330.5 172q-111 0 -194 -50t-128 -138q-90 -170 -90 -433.5z" />
<glyph unicode="R" horiz-adv-x="1294" d="M90 80q109 18 132.5 40.5t23.5 86.5v1005q0 63 -23.5 86t-132.5 41l12 80h570q219 0 325.5 -90t106.5 -243.5t-84 -267t-236 -165.5v-10q20 -6 45 -45l289 -434q31 -45 60.5 -61.5t107.5 -22.5l-12 -80h-291l-405 623h-134v-465q0 -45 41 -54l113 -24l-8 -80h-488z M444 727h113q162 0 245 70.5t83 259.5q0 254 -277 254h-123q-41 0 -41 -49v-535z" />
<glyph unicode="S" horiz-adv-x="1071" d="M72 187q0 92 24 223l117 6q16 -147 27.5 -190.5t29.5 -57.5q35 -25 114 -48.5t177 -23.5t164 59.5t66 159.5q0 156 -177 254q-45 23 -139 63t-133 59.5t-91 55t-81 72.5q-72 88 -72 215q0 186 138.5 295t359.5 109q168 0 315 -56q7 -53 7 -133.5t-23 -212.5l-119 -14 q-23 231 -55 258q-49 43 -179 43t-202 -52t-72 -153q0 -57 22.5 -102t82 -84t94.5 -55q51 -27 143 -66t143.5 -67.5t110.5 -75.5q115 -96 115 -278.5t-130 -295t-355 -112.5q-121 0 -241 29.5t-175 58.5q-6 25 -6 117z" />
<glyph unicode="T" horiz-adv-x="1181" d="M14 1179q0 89 19 240h1116q18 -152 18 -240.5t-2 -119.5l-104 -8q-35 199 -62 231q-8 10 -26.5 18.5t-282.5 12.5v-1155q0 -47 41 -54l158 -24l-8 -80h-564l-12 80q129 20 158 41.5t29 85.5v1106q-264 -4 -283 -12.5t-29 -18.5q-25 -33 -59 -231l-105 8q-2 31 -2 120z " />
<glyph unicode="U" horiz-adv-x="1507" d="M80 1339l12 80h502l8 -80l-127 -24q-41 -8 -41 -53v-721q0 -209 86 -315.5t279.5 -106.5t285 114.5t91.5 276.5v664q0 90 -34 120.5t-163 44.5l12 80h482l8 -80l-127 -24q-37 -8 -39 -29q-2 -8 -2 -24v-736q0 -252 -137.5 -398t-411.5 -146q-528 0 -528 528v702 q0 63 -24 86t-132 41z" />
<glyph unicode="V" horiz-adv-x="1341" d="M6 1337l14 82h488l8 -84l-145 -39q-14 -2 -14.5 -11t8.5 -34l315 -927q18 -51 18 -70h21l319 911q29 80 29 105q0 39 -149 67l12 82h403l8 -86q-84 -16 -106.5 -36.5t-42.5 -77.5l-451 -1237h-141l-457 1267q-16 43 -38.5 56.5t-98.5 31.5z" />
<glyph unicode="W" horiz-adv-x="1904" d="M-8 1337l14 82h457l8 -84l-115 -39q-14 -2 -14 -11t8 -34l285 -919q18 -66 18 -70h21l235 746l-71 241q-6 25 -13.5 37t-25.5 23q-25 12 -84 28l14 82h432l8 -84l-145 -39q-14 -2 -14 -11t8 -34l270 -919q18 -63 19 -70h20l287 903q23 76 22 101q0 45 -157 71l12 82h420 l8 -86q-84 -18 -108.5 -38.5t-43.5 -75.5l-409 -1237h-148l-221 745q-10 31 -10 53h-16q0 -23 -13 -53l-248 -745h-145l-428 1267q-14 43 -36.5 56.5t-100.5 31.5z" />
<glyph unicode="X" horiz-adv-x="1308" d="M29 82q84 23 111.5 35t52.5 49l362 532l-367 551q-29 43 -50 57.5t-89 30.5l14 82h488l8 -84l-137 -37q-14 -2 -14 -15t14 -32l233 -348q20 -31 21 -55h20l228 332q51 72 51 94t-26.5 34.5t-98.5 28.5l12 82h400l8 -86q-25 -6 -43.5 -10t-33.5 -11t-23.5 -10.5 t-18.5 -15.5t-13 -15t-14.5 -20.5t-15.5 -23.5l-338 -494l399 -594q23 -31 140 -53l-9 -86h-493l-12 82q94 18 107 32.5t13 31t-14 38.5l-229 340q-20 31 -21 62h-20l-283 -414q-16 -23 -16 -38t20 -21l97 -29l-9 -84h-397z" />
<glyph unicode="Y" horiz-adv-x="1224" d="M10 1337l15 82h481l8 -84l-137 -37q-14 -2 -14.5 -12t14.5 -35l235 -452q20 -35 21 -60h20l228 441q43 82 43 100t-26 29.5t-97 27.5l12 82h406l8 -86q-90 -18 -125 -39.5t-60 -70.5l-323 -635v-430q0 -47 41 -54l158 -24l-9 -80h-563l-12 80q129 20 157.5 41.5 t28.5 85.5v364l-368 678q-27 45 -48.5 58.5t-93.5 29.5z" />
<glyph unicode="Z" horiz-adv-x="1243" d="M72 0v53l780 1200q27 39 45 47l-4 15h-197q-281 0 -366 -12q-31 -3 -84 -259l-129 15q-4 86 -4 173t18 187h1043v-53l-783 -1200q-27 -39 -45 -47l4 -13h307q217 0 267 15q33 10 114 315l113 -10q2 -35 2 -142.5t-23 -283.5h-1058z" />
<glyph unicode="[" horiz-adv-x="581" d="M143 -336v1905h330v-109h-186v-1687h186v-109h-330z" />
<glyph unicode="\" horiz-adv-x="800" d="M31 1581h141l598 -1704h-143z" />
<glyph unicode="]" horiz-adv-x="581" d="M109 -227h186v1687h-186v109h329v-1905h-329v109z" />
<glyph unicode="^" horiz-adv-x="1026" d="M49 664l371 755h158l399 -755h-139l-340 641l-310 -641h-139z" />
<glyph unicode="_" horiz-adv-x="880" d="M-12 -150h905v-98h-905v98z" />
<glyph unicode="`" horiz-adv-x="413" d="M0 1458v47l164 62l219 -367l-72 -51z" />
<glyph unicode="a" horiz-adv-x="1048" d="M86 252q0 154 131 229.5t426 77.5v66q0 266 -192 266q-92 0 -116 -26.5t-50 -174.5l-111 12q-16 63 -16 132t2 90q120 76 315 76h3q196 0 272.5 -76t76.5 -250v-471q0 -53 26 -75t130 -42l-12 -66l-246 -26q-20 0 -43 39t-23 72.5t3 50.5l-17 6l-24 -37 q-96 -143 -265 -143q-115 0 -192.5 71.5t-77.5 198.5zM285 270q0 -74 38.5 -111.5t110.5 -37.5t162 69q47 37 47 78v201q-184 -4 -271 -49.5t-87 -149.5z" />
<glyph unicode="b" horiz-adv-x="1114" d="M14 1487l13 65q219 29 305 29l22 -20v-576q0 -113 -14 -160l16 -6l21 27q119 154 283 154h2q166 0 272 -132.5t106 -364t-121.5 -376.5t-351.5 -145q-109 0 -221.5 28.5t-175.5 59.5v1316q0 43 -33 62.5t-123 38.5zM354 172q88 -74 222.5 -74t181.5 56q37 41 60.5 130 t23.5 197q0 182 -65.5 276.5t-162 94.5t-204.5 -72q-35 -23 -45.5 -41t-10.5 -51v-516z" />
<glyph unicode="c" horiz-adv-x="958" d="M70 469.5q0 207.5 98 357.5q51 80 150.5 126t246 46t289.5 -57q2 -16 2 -105t-25 -175l-114 -13q-33 207 -62 219q-43 18 -153 18q-1 0 -2 1q-109 0 -160 -76q-72 -109 -72 -308.5t87 -290.5t227.5 -91t271.5 90l57 -68q-165 -162 -389 -162l-1 1q-224 0 -337.5 140 t-113.5 347.5z" />
<glyph unicode="d" horiz-adv-x="1165" d="M74 475.5q0 229.5 120.5 376.5t337.5 147q150 0 222 -53l14 6q-8 33 -8 90v344q0 43 -42 65t-151 36l13 65q219 29 342 29l22 -20v-1360q0 -53 25.5 -75t130.5 -42l-13 -66l-245 -26q-20 0 -45 41t-25 73.5t2 49.5l-16 6l-21 -27q-119 -154 -283 -154l-2 1 q-166 0 -272 132t-106 361.5zM272 525.5q0 -203.5 64.5 -300t163 -96.5t205.5 70q55 37 55 94v489q-84 100 -262 101q-88 0 -140 -58q-86 -96 -86 -299.5z" />
<glyph unicode="e" horiz-adv-x="978" d="M70 480q0 216 131 367.5t346 151.5q348 0 364 -428l-53 -39l-594 -32q0 -379 324 -379q141 0 276 69l43 -67q-68 -55 -176 -98t-227 -43q-207 0 -320.5 141t-113.5 357zM270 594l424 37q20 2 21 39q0 90 -48.5 155.5t-163 65.5t-167 -77t-66.5 -220z" />
<glyph unicode="f" horiz-adv-x="716" d="M92 80q100 20 122 41.5t22 75.5v632h-134l-8 89l101 24q27 6 35 22.5t10 55.5t7 76t17 112.5t40 133t69 116.5q86 123 260 123q111 0 233 -47q0 -156 -26 -248l-109 -10q-33 166 -49 176q-33 20 -86 21q-176 0 -176 -519h242l-17 -96l-225 -31v-680q0 -20 8 -29t37 -14 l153 -24l-8 -80h-506z" />
<glyph unicode="g" horiz-adv-x="1134" d="M113 -256q0 70 40 120t115 105q-116 37 -116 156q0 82 61 158q43 53 98 96q-31 14 -57 35q-102 82 -102 246.5t112.5 251.5t280.5 87q150 0 248 -63q133 63 258 68q20 -35 20 -83.5t-6 -66.5q-70 16 -145 16h-56q57 -78 58 -200q0 -164 -113 -251t-281 -87q-94 0 -166 24 q-61 -74 -61 -141q0 -61 70 -74q61 -10 138 -10t119 -1t107.5 -7t103.5 -20.5t79 -36.5q76 -43 75 -152q0 -147 -147.5 -255t-396.5 -108q-336 0 -336 193zM270 -187q0 -73 62 -116q61 -43 209.5 -43t230.5 61.5t82 123t-67.5 74.5t-214 15.5t-244.5 22.5q-58 -64 -58 -138z M340 665.5q0 -233.5 203 -233.5q190 0 190 233.5t-203 233.5q-190 0 -190 -233.5z" />
<glyph unicode="h" horiz-adv-x="1220" d="M57 1487l13 65q219 29 305 29l22 -20v-576q0 -113 -14 -160l16 -6l25 29q126 151 315 151h2q137 0 214 -79.5t77 -219.5v-553q0 -25 11.5 -31.5t29.5 -11.5l101 -24l-9 -80h-438l-12 80q92 18 112.5 40.5t20.5 76.5v442q0 98 -36 155.5t-143.5 57.5t-224.5 -80 q-27 -18 -37 -35.5t-10 -62.5v-527q0 -25 11.5 -31.5t29.5 -11.5l90 -24l-8 -80h-438l-12 80q100 20 121.5 41.5t21.5 75.5v1189q0 43 -33 62.5t-123 38.5z" />
<glyph unicode="i" horiz-adv-x="634" d="M72 885l12 65q219 29 305 29l23 -21v-811q0 -25 11 -31.5t30 -11.5l100 -24l-8 -80h-449l-12 80q100 20 121.5 41.5t21.5 75.5v587q0 43 -32.5 62.5t-122.5 38.5zM178 1338.5q0 54.5 32 87t87 32.5q117 0 117 -115q0 -51 -32 -85.5t-84 -34.5t-86 30.5t-34 85z" />
<glyph unicode="j" horiz-adv-x="573" d="M-109 -365q0 42 35 99q82 -20 124 -20q1 -1 3 -1q40 0 60 15q43 29 67.5 146.5t24.5 264.5v645q0 43 -33 62.5t-123 38.5l12 65q219 29 306 29l22 -21v-880q0 -193 -114.5 -360t-221.5 -167q-74 0 -155 15q-7 27 -7 69zM156 1338.5q0 54.5 31.5 87t86.5 32.5 q117 0 117 -115q0 -51 -31.5 -85.5t-84 -34.5t-86 30.5t-33.5 85z" />
<glyph unicode="k" horiz-adv-x="1165" d="M57 1487l13 65q219 29 305 29l22 -20v-1088l353 330q16 18 16 35q0 31 -141 51l12 80h407l9 -80q-94 -14 -113 -33l-281 -268l297 -424q33 -41 73 -59.5t116 -24.5l-12 -80h-285l-318 463l-133 -127v-189q0 -25 11.5 -31.5t29.5 -11.5l90 -24l-8 -80h-438l-12 80 q100 20 121.5 41.5t21.5 75.5v1189q0 43 -33 62.5t-123 38.5z" />
<glyph unicode="l" horiz-adv-x="620" d="M57 1487l13 65q219 29 305 29l22 -20v-1414q0 -25 11.5 -31.5t29.5 -11.5l101 -24l-9 -80h-448l-12 80q100 20 121.5 41.5t21.5 75.5v1189q0 43 -33 62.5t-123 38.5z" />
<glyph unicode="m" horiz-adv-x="1759" d="M72 903l12 66l264 26q14 0 29.5 -56t15.5 -101v-13l15 -6l20 27q51 66 130 109.5t167 43.5q197 0 250 -176l14 -2l23 29q116 149 291 149h2q125 0 195.5 -79.5t70.5 -219.5v-553q0 -25 11 -31.5t30 -11.5l100 -24l-8 -80h-438l-13 80q92 18 112.5 40.5t20.5 76.5v465 q0 190 -153 190q-80 0 -201 -80q-25 -14 -33 -31.5t-8 -62.5v-531q0 -25 11.5 -31.5t29.5 -11.5l90 -24l-8 -80h-428l-12 80q92 18 112.5 40.5t20.5 76.5v465q0 190 -154 190q-80 0 -200 -80q-25 -14 -33 -31.5t-8 -62.5v-531q0 -25 11 -31.5t30 -11.5l90 -24l-8 -80h-439 l-12 80q100 20 121.5 41.5t21.5 75.5v589q0 53 -25.5 75t-129.5 42z" />
<glyph unicode="n" horiz-adv-x="1220" d="M72 903l12 66l264 26q14 0 29.5 -57t15.5 -100v-13l17 -6l24 29q128 151 314 151h2q131 0 206.5 -78.5t75.5 -220.5v-553q0 -25 11.5 -31.5t29.5 -11.5l101 -24l-9 -80h-438l-12 80q92 18 112.5 40.5t20.5 76.5v442q0 96 -35 154.5t-136.5 58.5t-219.5 -80l-27 -18 q-18 -20 -18 -76v-528q0 -23 7 -31t34 -15l90 -24l-8 -80h-439l-12 80q100 20 121.5 41.5t21.5 75.5v589q0 53 -25.5 75t-129.5 42z" />
<glyph unicode="o" horiz-adv-x="1064" d="M66 479.5q0 235.5 125.5 377.5t348 142t341 -132t118.5 -367.5t-125.5 -376.5t-348 -141t-341 131t-118.5 366.5zM264 506q0 -182 74 -299t201 -117t180 62q37 41 59.5 130t22.5 193q0 182 -74 299t-201 117t-180 -62q-37 -41 -59.5 -130t-22.5 -193z" />
<glyph unicode="p" horiz-adv-x="1140" d="M41 903l12 66q249 27 266 27h1q12 -1 29.5 -55t17.5 -95v-21l16 -6l20 27q119 154 284 154h1q166 -1 272.5 -133t106.5 -361.5t-121 -376.5t-338 -147q-154 0 -221 53l-14 -6q8 -45 8 -90v-222q0 -27 11 -34t30 -9l186 -24l-8 -80h-534l-13 80q100 20 122 42t22 75v1019 q0 53 -26 75t-130 42zM381 199q84 -100 262 -101q88 0 139 58q86 96 86 299.5t-64.5 300t-162.5 96.5t-205 -70q-55 -37 -55 -94v-489z" />
<glyph unicode="q" horiz-adv-x="1112" d="M74 477.5q0 231.5 121.5 376.5t351.5 145q109 0 221.5 -28.5t175.5 -59.5v-1194q0 -25 11.5 -32t29.5 -11l100 -24l-8 -80h-532l-13 80q147 18 187.5 44.5t40.5 82.5v219q0 113 14 160l-16 6l-21 -27q-119 -154 -283 -154q-1 0 -2 1q-165 0 -271.5 132t-106.5 363.5z M272 500q0 -182 65.5 -276.5t162 -94.5t205.5 72q35 23 45 41t10 51v516q-88 74 -222.5 74t-181.5 -56q-37 -41 -60.5 -130t-23.5 -197z" />
<glyph unicode="r" horiz-adv-x="884" d="M57 903l13 66l278 26q14 0 30.5 -41t16.5 -85t-8 -101l16 -6l27 59q37 82 111.5 130t151.5 48t143 -32q0 -168 -31 -336l-100 -10q-16 172 -33 195.5t-54.5 23.5t-89 -34t-84 -72t-32.5 -124v-463q0 -27 11 -34t30 -9l186 -24l-8 -80h-549l-12 80q109 18 133 40.5 t24 76.5v589q0 53 -27.5 77t-142.5 40z" />
<glyph unicode="s" horiz-adv-x="894" d="M113 139.5q0 81.5 18 177.5l107 9q14 -131 21 -161t22 -38q66 -37 172 -37q165 0 165 131q0 65 -49 107q-55 45 -127 75q-188 78 -256.5 142.5t-68.5 179.5t104.5 194.5t252 79.5t269.5 -51q2 -16 2 -92t-26 -160l-94 -10q-14 160 -46 182.5t-120 22.5q-180 0 -180 -123 q0 -49 24.5 -72.5t35.5 -35t44 -28t46 -23.5t54 -23q172 -72 242 -135.5t70 -180t-103.5 -202.5t-283.5 -86q-80 0 -166 16t-125 33q-4 27 -4 108.5z" />
<glyph unicode="t" horiz-adv-x="716" d="M33 932l100 24q39 10 52.5 46t47.5 229l125 12v-274h285l-16 -97l-269 -30v-500q0 -213 131 -213q74 0 156 61l43 -59q-110 -149 -268 -149h-2q-115 0 -179.5 80t-64.5 219v563h-133z" />
<glyph unicode="u" horiz-adv-x="1181" d="M33 895l12 66q212 28 299 28h6l23 -20v-627q0 -213 162 -213q104 0 217 80q27 18 35 35.5t8 58.5v492q0 43 -33 62.5t-123 37.5l12 66q212 28 299 28h6l23 -20v-766q0 -53 25.5 -75t130.5 -42l-13 -66l-264 -28h-1q-15 0 -29 54q-16 56 -15 97v13l-16 6l-25 -29 q-128 -151 -313 -151h-2q-125 0 -197 66.5t-72 205.5v541q0 43 -32.5 62.5t-122.5 37.5z" />
<glyph unicode="v" horiz-adv-x="1015" d="M0 889l12 80h422l8 -80l-125 -31q-14 -2 -14 -16q0 -2 8 -27l185 -516q25 -72 24 -113h17l227 582q12 33 12 54.5t-29.5 35.5t-105.5 31l12 80h365l8 -80q-66 -16 -80 -21.5t-16 -13.5l-365 -872h-133l-323 833q-14 39 -28.5 49t-80.5 25z" />
<glyph unicode="w" horiz-adv-x="1544" d="M16 889l13 80h379l8 -80l-90 -29q-14 -2 -15 -14q0 -2 8 -27l189 -590q8 -20 8 -49v-8h16q0 23 17 61l186 465l-39 117q-12 37 -25.5 48t-64.5 26l12 80h336l9 -80l-91 -29q-14 -2 -14 -14q0 -2 8 -27l187 -590q8 -25 8 -49v-8h16q0 12 17 61l186 535q12 33 12 44 t-1 16.5t-5 10.5t-7 8t-10 7t-12.5 7t-15.5 7t-17 6.5t-19.5 7.5t-20.5 7l12 80h336l8 -80q-66 -16 -80 -21.5t-16 -13.5l-340 -872h-133l-168 516q-10 31 -10 55h-17q0 -23 -12 -53l-207 -518h-133l-297 833q-14 39 -28.5 49t-82.5 25z" />
<glyph unicode="x" horiz-adv-x="1134" d="M25 80q104 16 116 29l322 376l-293 351q-16 20 -41 28l-74 25l8 80h406l12 -80l-63 -15q-27 -8 -27 -23t31 -52l162 -195l159 199q14 16 15 33q0 35 -92 53l12 80h381l8 -80q-94 -14 -113 -33l-292 -346l315 -377q16 -20 41 -29l74 -24l-9 -80h-405l-12 80l63 14 q27 8 27 23.5t-31 52.5l-188 225l-189 -229q-14 -16 -14 -33q0 -35 92 -53l-12 -80h-381z" />
<glyph unicode="y" horiz-adv-x="1024" d="M8 889l12 80h422l9 -80l-125 -31q-14 -2 -15 -16q0 -2 8 -27l209 -547q10 -29 11 -63h16l217 563q12 33 12 54.5t-29.5 35.5t-105.5 31l13 80h364l8 -80q-90 -20 -96 -35l-324 -803q-41 -102 -65.5 -156.5t-67.5 -122t-90 -104.5q-117 -88 -282 -117q-53 53 -54 168 q0 12 4 41q49 -6 136.5 -6t138.5 21.5t123 224.5l-340 815q-16 39 -29.5 49t-79.5 25z" />
<glyph unicode="z" horiz-adv-x="907" d="M57 0v53l518 750q33 41 46 47l-5 14h-233q-80 0 -135 -6q-14 -2 -24.5 -29.5t-39.5 -142.5l-94 10q-4 66 -4 131.5t12 141.5h750v-58l-512 -745q-27 -39 -45 -47l4 -15l100 2q219 4 258 13.5t84 204.5l107 -9q-4 -164 -23 -315h-764z" />
<glyph unicode="{" horiz-adv-x="661" d="M61 578v77q88 35 125 73t37 126l-20 481q0 106 61.5 170t157.5 64q29 0 131 -8v-88q-96 -10 -141 -40t-45 -116v-518q0 -139 -121 -174l-23 -7v-4l23 -6q84 -20 106 -84q14 -31 15 -90v-518q0 -86 45 -115.5t141 -40.5v-88q-102 -8 -131 -8q-96 0 -157.5 64t-61.5 170 l20 481q0 88 -36.5 126t-125.5 73z" />
<glyph unicode="|" horiz-adv-x="522" d="M195 -430v2011h133v-2011h-133z" />
<glyph unicode="}" horiz-adv-x="661" d="M109 -240q96 10 141 40t45 116v518q0 59 14 90q23 63 107 84l22 6v4l-22 7q-121 35 -121 174v518q0 86 -45 115.5t-141 40.5v88q102 8 131 8q96 0 157.5 -64t61.5 -170l-21 -481q0 -88 37 -126t125 -73v-77q-88 -35 -125 -73t-37 -126l21 -481q0 -106 -61.5 -170 t-157.5 -64q-29 0 -131 8v88z" />
<glyph unicode="~" horiz-adv-x="993" d="M61 481q68 115 116 160t97.5 45t83 -10t252.5 -92q57 -20 93 -20.5t65 15t45 32t51 53.5l72 -50q-57 -88 -92 -131q-59 -74 -129 -73q-37 0 -74 11t-141.5 50t-139 50t-71.5 11q-66 0 -156 -100z" />
<glyph unicode="&#xa1;" horiz-adv-x="462" d="M96 -412l107 1039l102 -4l27 -1012l-211 -62zM145 895q0 47 32 80t84 33t86 -29t34 -80t-32 -82t-87 -31q-117 0 -117 109z" />
<glyph unicode="&#xa2;" horiz-adv-x="868" d="M70 689.5q0 154.5 76.5 270t252.5 148.5v260h117v-250q139 0 252 -47q2 -12 2 -87t-20 -142l-88 -11q-20 111 -28.5 140.5t-21.5 34.5q-29 8 -96 12v-615h12q127 0 240 76l53 -61q-133 -119 -305 -133v-285h-117v289q-162 25 -245.5 135.5t-83.5 265zM254 711 q0 -207 145 -277v576q-41 -8 -69 -43q-76 -92 -76 -256z" />
<glyph unicode="&#xa3;" horiz-adv-x="1067" d="M33 643v109h151q-10 66 -10 127q0 272 144.5 415.5t379.5 143.5q111 0 250 -52q2 -16 2 -91.5t-26 -159.5l-95 -11q-12 154 -34 172q-33 33 -133 33q-147 0 -204 -98t-57 -332q0 -74 7 -147h395v-109h-389q2 -25 2 -70q0 -229 -113 -366l6 -10q59 41 139 41t209 -37 t164 -37q66 0 150 84l71 -47q-51 -94 -88 -140q-68 -80 -180 -79q-68 0 -204 44t-207.5 44t-115.5 -14.5t-66.5 -28t-69.5 -47.5l-52 67q74 82 113 153.5t46 112.5t7 114t-22 216h-170z" />
<glyph unicode="&#xa4;" horiz-adv-x="1234" d="M72 229l186 187q-86 100 -86 264t80 272l-178 181l94 92l180 -183q115 74 279 74t266 -65l174 174l96 -95l-172 -169q74 -98 74 -263.5t-96 -273.5l194 -197l-94 -92l-207 205q-109 -57 -252 -57t-245 51l-199 -199zM371 725.5q0 -154.5 68.5 -244.5t188.5 -90t175 55 q63 72 63 226.5t-68.5 245t-188.5 90.5t-175 -56q-63 -72 -63 -226.5z" />
<glyph unicode="&#xa5;" horiz-adv-x="1216" d="M29 1337l14 82h481l8 -84l-137 -37q-14 -2 -14 -12t14 -35l213 -411q20 -35 21 -60h20l207 400q43 82 43 100t-25.5 29.5t-97.5 27.5l12 82h406l8 -86q-90 -18 -125 -39.5t-59 -70.5l-242 -471h223v-109h-770v109h211l-270 497q-27 45 -48.5 58.5t-92.5 29.5zM229 393 v109h770v-109h-284v-235q0 -47 41 -54l157 -24l-8 -80h-563l-12 80q129 20 157.5 41.5t28.5 85.5v186h-287z" />
<glyph unicode="&#xa6;" horiz-adv-x="522" d="M195 426h133v-856h-133v856zM195 727v854h133v-854h-133z" />
<glyph unicode="&#xa7;" horiz-adv-x="894" d="M51 573q0 168 213 301q-141 106 -141 279q0 117 99.5 201t257 84t272.5 -49q4 -27 4 -109t-19 -178l-106 -8q-10 190 -41 209q-43 27 -127 26.5t-131 -27t-47 -107.5t44 -136t128 -101l125 -67q16 -10 65 -35t70.5 -37t58.5 -39.5t55 -50.5q45 -63 46 -139 q0 -164 -209 -299q127 -90 127 -226.5t-110 -222.5t-298 -86q-80 0 -166 16.5t-125 32.5q-4 27 -4 130.5t19 156.5l106 8q14 -135 20.5 -162.5t22.5 -35.5q66 -37 172 -37q186 0 186 133q0 80 -52 131t-154 107l-66 36q-16 10 -65.5 35t-71 37t-58 40t-53.5 50 q-47 63 -47 139zM213 629q0 -78 117 -146q81 -45 110 -59l138 -76q137 104 137 187q0 57 -51 96t-106.5 68.5t-70.5 37.5l-137 78q-137 -106 -137 -186z" />
<glyph unicode="&#xa8;" horiz-adv-x="630" d="M10 1343q0 45 30 78t77 33q109 0 108 -111q0 -47 -30.5 -80.5t-77.5 -33.5q-106 0 -107 114zM406 1343q0 45 29.5 78t76.5 33q109 0 109 -111q0 -47 -31 -80.5t-78 -33.5q-106 0 -106 114z" />
<glyph unicode="&#xa9;" horiz-adv-x="1722" d="M92 697.5q0 332.5 211 536.5t579.5 204t568.5 -187.5t200 -520.5t-211 -540.5t-579.5 -207.5t-568.5 191.5t-200 524zM291 707.5q0 -263.5 154.5 -440.5t443.5 -177q152 0 264.5 51.5t175.5 141.5q123 174 123 437t-154.5 436t-443.5 173q-152 0 -264.5 -50t-175.5 -138 q-123 -170 -123 -433.5zM442 713q0 174 107 315q55 70 151.5 113t228.5 43t294 -105v-45q0 -117 -19 -194l-139 -13q-23 193 -27 199q-41 49 -131 49q-133 0 -199.5 -98t-66.5 -272.5t91 -268.5t208 -94q37 0 72 9t39 22q20 20 36 170l121 -8q20 -66 20.5 -135.5t-1.5 -86.5 q-33 -29 -127 -54.5t-154 -25.5q-270 0 -387 132.5t-117 347.5z" />
<glyph unicode="&#xaa;" horiz-adv-x="774" d="M59 465v108h676v-108h-676zM72 901q0 217 385 221v43q0 180 -117 181q-57 0 -72 -19q-14 -25 -28 -127l-103 8q-14 49 -14 100.5t2 73.5q88 55 232.5 55.5t200.5 -53t56 -180.5v-340q0 -37 18.5 -52t94.5 -30l-8 -61l-180 -19q-14 0 -30.5 30t-16.5 63v28l-11 4l-18 -26 q-72 -109 -195 -109q-84 0 -140 52.5t-56 156.5zM240 909q0 -100 84 -100q49 0 104 45q29 26 29 53v137q-113 -4 -165 -34.5t-52 -100.5z" />
<glyph unicode="&#xab;" horiz-adv-x="942" d="M123 500v32l334 349l43 -33l-215 -332l215 -356l-43 -33zM483 500v32l334 349l43 -33l-215 -332l215 -356l-43 -33z" />
<glyph unicode="&#xac;" horiz-adv-x="1056" d="M92 686v109h873v-459h-117v350h-756z" />
<glyph unicode="&#xad;" horiz-adv-x="604" d="M70 416l24 151l447 29l-33 -127z" />
<glyph unicode="&#xae;" horiz-adv-x="1722" d="M92 697.5q0 332.5 211 536.5t579.5 204t568.5 -187.5t200 -520.5t-211 -540.5t-579.5 -207.5t-568.5 191.5t-200 524zM291 707.5q0 -263.5 154.5 -440.5t443.5 -177q152 0 264.5 51.5t175.5 141.5q123 174 123 437t-154.5 436t-443.5 173q-152 0 -264.5 -50t-175.5 -138 q-123 -170 -123 -433.5zM506 1098l8 73h395q299 0 299 -215q0 -76 -56 -153.5t-155 -116.5v-8q12 -2 33 -29l164 -266q27 -43 88 -53l-8 -76h-203l-225 389h-78v-266q0 -27 27 -33l71 -14l-4 -76h-344l-8 76q47 12 63.5 26.5t16.5 49.5v616q0 37 -13.5 50t-70.5 26zM768 741 h45q100 0 151.5 41t51.5 148q0 147 -172 147h-51q-25 0 -25 -26v-310z" />
<glyph unicode="&#xaf;" horiz-adv-x="774" d="M45 1315v123h510v-123h-510z" />
<glyph unicode="&#xb0;" horiz-adv-x="747" d="M92 1159q0 127 76 203t209 76t204.5 -71t71.5 -197t-76.5 -202.5t-208.5 -76.5t-204 70.5t-72 197.5zM209 1159q0 -78 41 -121t118.5 -43t123 48.5t45.5 126t-41 120.5t-119 43t-123 -48t-45 -126z" />
<glyph unicode="&#xb1;" horiz-adv-x="954" d="M92 -2v108h770v-108h-770zM92 627v108h334v342h102v-342h334v-108h-334v-351h-102v351h-334z" />
<glyph unicode="&#xb2;" horiz-adv-x="675" d="M16 891v86q211 168 314.5 297t103.5 235q0 68 -43 114t-124 46t-109 -33q-23 -23 -31 -139l-90 8q-12 59 -12 110.5t2 65.5q43 33 120.5 52.5t143.5 19.5q160 0 245 -68.5t85 -183.5t-102.5 -229.5t-342.5 -284.5l2 -10l125 4q168 4 176 8q25 4 53 125l82 -4v-39 q0 -111 -20 -180h-578z" />
<glyph unicode="&#xb3;" horiz-adv-x="641" d="M2 905q15 131 23 182l90 7q6 -115 26 -121q37 -12 106.5 -12t118 44t48.5 115q0 176 -176 176q-20 0 -70 -4l4 74q111 16 162 68.5t51 112t-38 93t-99.5 33.5t-86 -17.5t-34.5 -139.5l-88 8q-12 66 -12 110.5t2 61.5q102 57 235 57t211 -48t78 -123t-47 -131t-111 -81 l2 -10q82 -12 141.5 -69.5t59.5 -154t-103.5 -177t-255 -80.5t-237.5 26z" />
<glyph unicode="&#xb4;" horiz-adv-x="405" d="M25 1200l219 367l164 -62v-47l-312 -309z" />
<glyph unicode="&#xb5;" horiz-adv-x="1181" d="M33 895l12 66q219 29 305 28l23 -20v-627q0 -213 162 -213q104 0 217 80q27 18 35 35.5t8 58.5v492q0 43 -33 62.5t-123 37.5l12 66q219 29 305 28l23 -20v-774q0 -53 25.5 -75t130.5 -42l-13 -66l-264 -26q-14 -2 -29.5 56t-15.5 101v13l-16 6l-25 -29 q-129 -151 -315 -151q-86 0 -127 24l-15 -12l70 -369l-166 -82l-31 35v1217q0 43 -32.5 62.5t-122.5 37.5z" />
<glyph unicode="&#xb6;" horiz-adv-x="1222" d="M133 1022q0 184 105.5 290.5t308.5 106.5h590l8 -80l-127 -24q-41 -8 -41 -53v-1000q0 -186 -97.5 -346t-191.5 -160t-176 17q-6 25 -6 71.5t39 108.5q96 -23 135 -23t72.5 21.5t45 115t11.5 257.5v987h-96v-1241q-66 -12 -146 -13l-22 21v491q-197 6 -304.5 137.5 t-107.5 315.5z" />
<glyph unicode="&#xb7;" horiz-adv-x="491" d="M113 523.5q0 60.5 36.5 99.5t95 39t96.5 -32t38 -93.5t-38 -101.5t-96.5 -40t-95 34t-36.5 94.5z" />
<glyph unicode="&#xb8;" horiz-adv-x="993" d="M420 -182l78 264l100 -27l-43 -153q33 6 72 6q66 0 111.5 -35t45.5 -96q0 -86 -95 -149.5t-259 -71.5l-8 63q195 27 194 119q0 33 -24.5 55.5t-70.5 22.5t-83 -21z" />
<glyph unicode="&#xb9;" horiz-adv-x="546" d="M68 1700q154 53 272 53l16 -14v-752q0 -10 9.5 -12t17.5 -4l102 -17l-6 -63h-395l-8 63q78 12 104.5 27.5t26.5 44.5v528q0 63 -6 75.5t-46 12.5t-77 -6z" />
<glyph unicode="&#xba;" horiz-adv-x="786" d="M51 1058q0 173 92.5 276.5t254 103.5t249.5 -97.5t88 -268.5t-92 -275.5t-255 -104.5t-250 96.5t-87 269.5zM55 465v108h676v-108h-676zM217 1091q0 -143 48 -225t131 -82t120 45q51 66 51 209.5t-48 224t-131 80.5t-116 -43q-55 -66 -55 -209z" />
<glyph unicode="&#xbb;" horiz-adv-x="942" d="M82 160l215 356l-215 332l43 33l334 -349v-32l-334 -373zM442 160l215 356l-215 332l43 33l334 -349v-32l-334 -373z" />
<glyph unicode="&#xbc;" horiz-adv-x="1730" d="M150 1378q154 53 272 54l16 -15v-749q0 -12 9.5 -14.5t17.5 -4.5l102 -16l-6 -64h-395l-8 64q78 12 104.5 27.5t26.5 44.5v528q0 63 -6.5 75.5t-46 12.5t-76.5 -6zM336 0l915 1419h133l-913 -1419h-135zM911 317l414 529q94 16 143 16l15 -12v-522l137 -2l-12 -103h-125 v-117q0 -23 26 -26l76 -17l-4 -63h-369l-8 63q78 12 103.5 26.5t25.5 45.5v88h-391zM1032 342l4 -8l297 -6v348q0 27 4 39l-8 4l-274 -348q-13 -19 -23 -29z" />
<glyph unicode="&#xbd;" horiz-adv-x="1843" d="M150 1378q154 53 272 54l16 -15v-749q0 -12 9.5 -14.5t17.5 -4.5l102 -16l-6 -64h-395l-8 64q78 12 104.5 27.5t26.5 44.5v528q0 63 -6.5 75.5t-46 12.5t-76.5 -6zM336 0l915 1419h133l-913 -1419h-135zM1102 0v86q211 168 314.5 297t103.5 235q0 68 -43 114t-124 46 t-110 -33q-23 -23 -31 -139l-90 8q-12 57 -12 109.5t2 67.5q43 33 121 52t143 19q160 0 245 -68.5t85 -183t-102.5 -229.5t-341.5 -285l2 -10l125 4q168 4 176 8q25 4 53 125l82 -4v-39q0 -111 -21 -180h-577z" />
<glyph unicode="&#xbe;" horiz-adv-x="1730" d="M84 584q14 131 22 182l91 6q6 -115 26 -121q37 -12 106.5 -12t118 44t48.5 116q0 176 -177 176q-20 0 -69 -4l4 73q111 16 162 68.5t51 112t-38 93.5t-99.5 34t-86 -17.5t-34.5 -140.5l-88 8q-12 66 -12 111t2 61q102 57 235 57.5t211 -48t78 -123t-47 -131t-111 -80.5 l2 -11q82 -12 141.5 -69.5t59.5 -153.5t-103.5 -177t-255 -81t-237.5 27zM336 0l915 1419h133l-913 -1419h-135zM911 317l414 529q94 16 143 16l15 -12v-522l137 -2l-12 -103h-125v-117q0 -23 26 -26l76 -17l-4 -63h-369l-8 63q78 12 103.5 26.5t25.5 45.5v88h-391z M1032 342l4 -8l297 -6v348q0 27 4 39l-8 4l-274 -348q-13 -19 -23 -29z" />
<glyph unicode="&#xbf;" horiz-adv-x="868" d="M49 -129q0 80 32 147.5t80 110.5t104.5 86t103.5 76q113 72 112 158q0 40 -20 122l96 29q94 -131 94 -217q0 -102 -151 -201q-61 -41 -123 -84t-106 -104.5t-44 -148.5t73 -136t169 -49t158 33q16 8 24 38.5t19 143.5l110 -12q16 -63 16.5 -134t-1.5 -91 q-59 -35 -162 -61t-199 -26q-168 0 -276.5 83t-108.5 237zM383 891q0 51 31.5 84t84 33t86 -30t33.5 -81t-31.5 -81t-88.5 -30q-115 0 -115 105z" />
<glyph unicode="&#xc0;" d="M14 82q78 20 95.5 32.5t33.5 55.5l459 1268h170l469 -1301q10 -31 121 -51l-8 -86h-477l-13 82q143 29 144 68q0 16 -9 43l-90 266h-530l-105 -291q-8 -25 -8 -34t13 -11l145 -39l-8 -84h-387zM348 1767l123 105l356 -264l-51 -74l-411 190zM418 567h456l-200 576 q-14 43 -15 59h-20z" />
<glyph unicode="&#xc1;" d="M14 82q78 20 95.5 32.5t33.5 55.5l459 1268h170l469 -1301q10 -31 121 -51l-8 -86h-477l-13 82q143 29 144 68q0 16 -9 43l-90 266h-530l-105 -291q-8 -25 -8 -34t13 -11l145 -39l-8 -84h-387zM418 567h456l-200 576q-14 43 -15 59h-20zM553 1608l356 264l123 -105 l-16 -43l-412 -190z" />
<glyph unicode="&#xc2;" d="M14 82q78 20 95.5 32.5t33.5 55.5l459 1268h170l469 -1301q10 -31 121 -51l-8 -86h-477l-13 82q143 29 144 68q0 16 -9 43l-90 266h-530l-105 -291q-8 -25 -8 -34t13 -11l145 -39l-8 -84h-387zM354 1587l279 285h115l278 -285l-51 -53l-285 186l-284 -186zM418 567h456 l-200 576q-14 43 -15 59h-20z" />
<glyph unicode="&#xc3;" d="M14 82q78 20 95.5 32.5t33.5 55.5l459 1268h170l469 -1301q10 -31 121 -51l-8 -86h-477l-13 82q143 29 144 68q0 16 -9 43l-90 266h-530l-105 -291q-8 -25 -8 -34t13 -11l145 -39l-8 -84h-387zM322 1612q66 109 112.5 152.5t93.5 43.5t179.5 -27.5t183.5 -27.5t119 72 l51 -25q-43 -94 -87 -150.5t-90 -56.5t-182.5 28t-185.5 28q-78 0 -147 -70zM418 567h456l-200 576q-14 43 -15 59h-20z" />
<glyph unicode="&#xc4;" d="M14 82q78 20 95.5 32.5t33.5 55.5l459 1268h170l469 -1301q10 -31 121 -51l-8 -86h-477l-13 82q143 29 144 68q0 16 -9 43l-90 266h-530l-105 -291q-8 -25 -8 -34t13 -11l145 -39l-8 -84h-387zM385 1702q0 45 29.5 77.5t77.5 32.5q109 0 108 -110q0 -47 -30.5 -81 t-77.5 -34q-106 0 -107 115zM418 567h456l-200 576q-14 43 -15 59h-20zM780 1702q0 45 30 77.5t77 32.5q109 0 108 -110q0 -47 -30.5 -81t-77.5 -34q-106 0 -107 115z" />
<glyph unicode="&#xc5;" d="M14 82q78 20 95.5 32.5t33.5 55.5l459 1268h170l469 -1301q10 -31 121 -51l-8 -86h-477l-13 82q143 29 144 68q0 16 -9 43l-90 266h-530l-105 -291q-8 -25 -8 -34t13 -11l145 -39l-8 -84h-387zM418 567h456l-200 576q-14 43 -15 59h-20zM498 1694q0 84 60 136t144 52 t141.5 -49t57.5 -131t-60.5 -135.5t-145.5 -53.5t-141 48.5t-56 132.5zM598 1694q0 -43 26.5 -67.5t70.5 -24.5t74 28.5t30 71.5t-27 67.5t-67 24.5q-106 0 -107 -100z" />
<glyph unicode="&#xc6;" horiz-adv-x="1802" d="M29 82q70 18 86 29.5t43 58.5l614 1071q12 20 12 35q0 41 -125 63l13 80h1018q12 -76 12 -150.5t-4 -168.5l-117 -15q-29 141 -41 177t-29 38q-49 6 -125 9l-311 6v-551h309q27 0 66 145l63 -6q0 -150 5.5 -209t6.5 -71.5t8 -59.5t9 -65l-74 -13q-33 117 -44 143.5 t-25 26.5h-324v-551l174 2q266 4 301 29q20 14 86 240l113 -8q2 -27 2 -121t-22 -246h-996l-12 80q109 18 132.5 40.5t23.5 86.5v448h-314l-274 -477q-18 -33 -18.5 -42t22.5 -15l139 -37l-8 -84h-381zM625 764h252v438h-13z" />
<glyph unicode="&#xc7;" horiz-adv-x="1269" d="M72 678q0 233 96 416q113 215 338 299q125 45 260 45t260 -20.5t164 -37.5q12 -76 12 -158.5t-4 -185.5l-117 -16q-45 238 -80 262q-18 14 -95 30.5t-152 16.5q-225 0 -340 -166t-115 -436q0 -319 145.5 -475t360.5 -156q78 0 146.5 18.5t90 35t66.5 260.5l113 -4 q0 -156 -23 -332q-63 -35 -190 -64q-125 -29 -254 -28l-23 -80q33 6 72 6q66 0 112 -35t46 -96q0 -86 -95.5 -149.5t-259.5 -71.5l-8 63q90 10 142.5 42t52.5 71t-25 61.5t-71 22.5t-83 -21l-18 23l49 168q-260 27 -403 192q-170 197 -170 500z" />
<glyph unicode="&#xc8;" horiz-adv-x="1212" d="M90 80q109 18 132.5 40.5t23.5 86.5v1005q0 63 -23.5 86t-132.5 41l12 80h955q12 -76 12 -150.5t-4 -168.5l-117 -15q-29 141 -41 177t-28 38q-49 6 -125 9l-310 6v-551h308q27 0 65 145l64 -6q0 -150 5 -209t6 -71.5t8 -59.5t9 -65l-73 -13q-33 117 -44.5 143.5 t-25.5 26.5h-322v-551l183 2q231 0 282 25q6 4 9 4q35 10 90 242l112 -10q2 -35 2 -124t-22 -243h-998zM254 1767l123 105l356 -264l-51 -74l-412 190z" />
<glyph unicode="&#xc9;" horiz-adv-x="1212" d="M90 80q109 18 132.5 40.5t23.5 86.5v1005q0 63 -23.5 86t-132.5 41l12 80h955q12 -76 12 -150.5t-4 -168.5l-117 -15q-29 141 -41 177t-28 38q-49 6 -125 9l-310 6v-551h308q27 0 65 145l64 -6q0 -150 5 -209t6 -71.5t8 -59.5t9 -65l-73 -13q-33 117 -44.5 143.5 t-25.5 26.5h-322v-551l183 2q231 0 282 25q6 4 9 4q35 10 90 242l112 -10q2 -35 2 -124t-22 -243h-998zM418 1608l356 264l123 -105l-16 -43l-412 -190z" />
<glyph unicode="&#xca;" horiz-adv-x="1212" d="M90 80q109 18 132.5 40.5t23.5 86.5v1005q0 63 -23.5 86t-132.5 41l12 80h955q12 -76 12 -150.5t-4 -168.5l-117 -15q-29 141 -41 177t-28 38q-49 6 -125 9l-310 6v-551h308q27 0 65 145l64 -6q0 -150 5 -209t6 -71.5t8 -59.5t9 -65l-73 -13q-33 117 -44.5 143.5 t-25.5 26.5h-322v-551l183 2q231 0 282 25q6 4 9 4q35 10 90 242l112 -10q2 -35 2 -124t-22 -243h-998zM260 1587l279 285h114l279 -285l-51 -53l-285 186l-285 -186z" />
<glyph unicode="&#xcb;" horiz-adv-x="1212" d="M90 80q109 18 132.5 40.5t23.5 86.5v1005q0 63 -23.5 86t-132.5 41l12 80h955q12 -76 12 -150.5t-4 -168.5l-117 -15q-29 141 -41 177t-28 38q-49 6 -125 9l-310 6v-551h308q27 0 65 145l64 -6q0 -150 5 -209t6 -71.5t8 -59.5t9 -65l-73 -13q-33 117 -44.5 143.5 t-25.5 26.5h-322v-551l183 2q231 0 282 25q6 4 9 4q35 10 90 242l112 -10q2 -35 2 -124t-22 -243h-998zM293 1702q0 45 29.5 77.5t76.5 32.5q109 0 109 -110q0 -47 -31 -81t-78 -34q-106 0 -106 115zM688 1702q0 45 30 77.5t77 32.5q109 0 108 -110q0 -47 -30.5 -81 t-77.5 -34q-106 0 -107 115z" />
<glyph unicode="&#xcc;" horiz-adv-x="690" d="M14 1767l123 105l357 -264l-52 -74l-411 190zM90 80q109 18 132.5 40.5t23.5 86.5v1005q0 63 -23.5 86t-132.5 41l12 80h502l8 -80l-127 -24q-41 -8 -41 -53v-1104q0 -45 41 -54l127 -24l-8 -80h-502z" />
<glyph unicode="&#xcd;" horiz-adv-x="690" d="M90 80q109 18 132.5 40.5t23.5 86.5v1005q0 63 -23.5 86t-132.5 41l12 80h502l8 -80l-127 -24q-41 -8 -41 -53v-1104q0 -45 41 -54l127 -24l-8 -80h-502zM160 1608l356 264l123 -105l-16 -43l-412 -190z" />
<glyph unicode="&#xce;" horiz-adv-x="690" d="M8 1587l279 285h114l279 -285l-51 -53l-285 186l-285 -186zM90 80q109 18 132.5 40.5t23.5 86.5v1005q0 63 -23.5 86t-132.5 41l12 80h502l8 -80l-127 -24q-41 -8 -41 -53v-1104q0 -45 41 -54l127 -24l-8 -80h-502z" />
<glyph unicode="&#xcf;" horiz-adv-x="690" d="M39 1702q0 45 29.5 77.5t76.5 32.5q109 0 109 -110q0 -47 -31 -81t-78 -34q-106 0 -106 115zM90 80q109 18 132.5 40.5t23.5 86.5v1005q0 63 -23.5 86t-132.5 41l12 80h502l8 -80l-127 -24q-41 -8 -41 -53v-1104q0 -45 41 -54l127 -24l-8 -80h-502zM434 1702 q0 45 30 77.5t77 32.5q109 0 108 -110q0 -47 -30.5 -81t-77.5 -34q-106 0 -107 115z" />
<glyph unicode="&#xd0;" horiz-adv-x="1460" d="M55 692v123h191v397q0 63 -23.5 86t-132.5 41l12 80h641q176 0 305.5 -56t200.5 -155q139 -188 140 -454q0 -293 -156 -510q-78 -111 -216 -177.5t-319 -66.5h-596l-12 80q109 18 132.5 40.5t23.5 86.5v485h-191zM444 190q0 -45 43 -53q143 -29 218 -28 q227 0 341.5 161.5t114.5 431.5q0 170 -44 295t-118 191q-139 123 -303 123h-252v-496h342v-123h-342v-502z" />
<glyph unicode="&#xd1;" horiz-adv-x="1587" d="M90 80q109 18 132.5 40.5t23.5 86.5v1005q0 63 -23.5 86t-132.5 41l12 80h158h121h113l700 -1032h14v784q0 92 -33.5 123t-162.5 45l12 80h481l8 -80l-127 -24q-41 -8 -40 -53v-1262h-121h-6l-820 1212h-16v-1007q0 -51 19.5 -76t70.5 -31l143 -18l-8 -80h-506zM438 1612 q66 109 113 152.5t94 43.5t179 -27.5t183 -27.5t119 72l52 -25q-43 -94 -87 -150.5t-90.5 -56.5t-182.5 28t-185 28q-78 0 -148 -70z" />
<glyph unicode="&#xd2;" horiz-adv-x="1456" d="M72 697.5q0 332.5 178 536.5t488.5 204t478 -187.5t167.5 -520.5t-178 -540.5t-488 -207.5t-478 191.5t-168 524zM299 707.5q0 -263.5 114.5 -440.5t331.5 -177q111 0 194 51.5t130 141.5q88 174 88 438t-115.5 436t-330.5 172q-111 0 -194 -50t-128 -138 q-90 -170 -90 -433.5zM446 1767l123 105l357 -264l-52 -74l-411 190z" />
<glyph unicode="&#xd3;" horiz-adv-x="1456" d="M72 697.5q0 332.5 178 536.5t488.5 204t478 -187.5t167.5 -520.5t-178 -540.5t-488 -207.5t-478 191.5t-168 524zM299 707.5q0 -263.5 114.5 -440.5t331.5 -177q111 0 194 51.5t130 141.5q88 174 88 438t-115.5 436t-330.5 172q-111 0 -194 -50t-128 -138 q-90 -170 -90 -433.5zM539 1608l356 264l123 -105l-17 -43l-411 -190z" />
<glyph unicode="&#xd4;" horiz-adv-x="1456" d="M72 697.5q0 332.5 178 536.5t488.5 204t478 -187.5t167.5 -520.5t-178 -540.5t-488 -207.5t-478 191.5t-168 524zM299 707.5q0 -263.5 114.5 -440.5t331.5 -177q111 0 194 51.5t130 141.5q88 174 88 438t-115.5 436t-330.5 172q-111 0 -194 -50t-128 -138 q-90 -170 -90 -433.5zM391 1587l279 285h114l279 -285l-51 -53l-285 186l-285 -186z" />
<glyph unicode="&#xd5;" horiz-adv-x="1456" d="M72 697.5q0 332.5 178 536.5t488.5 204t478 -187.5t167.5 -520.5t-178 -540.5t-488 -207.5t-478 191.5t-168 524zM299 707.5q0 -263.5 114.5 -440.5t331.5 -177q111 0 194 51.5t130 141.5q88 174 88 438t-115.5 436t-330.5 172q-111 0 -194 -50t-128 -138 q-90 -170 -90 -433.5zM367 1612q66 109 112.5 152.5t94 43.5t179.5 -27.5t183 -27.5t119 72l51 -25q-43 -94 -87 -150.5t-90 -56.5t-182.5 28t-185.5 28q-78 0 -147 -70z" />
<glyph unicode="&#xd6;" horiz-adv-x="1456" d="M72 697.5q0 332.5 178 536.5t488.5 204t478 -187.5t167.5 -520.5t-178 -540.5t-488 -207.5t-478 191.5t-168 524zM299 707.5q0 -263.5 114.5 -440.5t331.5 -177q111 0 194 51.5t130 141.5q88 174 88 438t-115.5 436t-330.5 172q-111 0 -194 -50t-128 -138 q-90 -170 -90 -433.5zM414 1702q0 45 29.5 77.5t76.5 32.5q109 0 109 -110q0 -47 -31 -81t-78 -34q-106 0 -106 115zM809 1702q0 45 29.5 77.5t76.5 32.5q109 0 109 -110q0 -47 -31 -81t-78 -34q-106 0 -106 115z" />
<glyph unicode="&#xd7;" horiz-adv-x="1062" d="M174 227l285 285l-283 283l74 71l280 -280l283 280l76 -73l-285 -281l285 -287l-74 -71l-283 284l-284 -284z" />
<glyph unicode="&#xd8;" horiz-adv-x="1452" d="M72 692q0 338 178 542t493 204q154 0 277 -54l102 197l113 -41l-111 -213q260 -184 260 -602q0 -338 -178 -540.5t-493 -202.5q-135 0 -258 43l-99 -189l-110 41l102 201q-276 182 -276 614zM299 727q0 -311 133 -485l518 1007q-98 80 -224 80t-209 -50t-128 -136 q-90 -170 -90 -416zM522 156q98 -66 216 -66t201 50t130 139q88 168 88 435t-121 443z" />
<glyph unicode="&#xd9;" horiz-adv-x="1507" d="M80 1339l12 80h502l8 -80l-127 -24q-41 -8 -41 -53v-721q0 -209 86 -315.5t279.5 -106.5t285 114.5t91.5 276.5v664q0 90 -34 120.5t-163 44.5l12 80h482l8 -80l-127 -24q-37 -8 -39 -29q-2 -8 -2 -24v-736q0 -252 -137.5 -398t-411.5 -146q-528 0 -528 528v702 q0 63 -24 86t-132 41zM430 1767l123 105l356 -264l-51 -74l-412 190z" />
<glyph unicode="&#xda;" horiz-adv-x="1507" d="M80 1339l12 80h502l8 -80l-127 -24q-41 -8 -41 -53v-721q0 -209 86 -315.5t279.5 -106.5t285 114.5t91.5 276.5v664q0 90 -34 120.5t-163 44.5l12 80h482l8 -80l-127 -24q-37 -8 -39 -29q-2 -8 -2 -24v-736q0 -252 -137.5 -398t-411.5 -146q-528 0 -528 528v702 q0 63 -24 86t-132 41zM657 1608l357 264l123 -105l-17 -43l-411 -190z" />
<glyph unicode="&#xdb;" horiz-adv-x="1507" d="M80 1339l12 80h502l8 -80l-127 -24q-41 -8 -41 -53v-721q0 -209 86 -315.5t279.5 -106.5t285 114.5t91.5 276.5v664q0 90 -34 120.5t-163 44.5l12 80h482l8 -80l-127 -24q-37 -8 -39 -29q-2 -8 -2 -24v-736q0 -252 -137.5 -398t-411.5 -146q-528 0 -528 528v702 q0 63 -24 86t-132 41zM436 1587l279 285h114l279 -285l-51 -53l-285 186l-285 -186z" />
<glyph unicode="&#xdc;" horiz-adv-x="1507" d="M80 1339l12 80h502l8 -80l-127 -24q-41 -8 -41 -53v-721q0 -209 86 -315.5t279.5 -106.5t285 114.5t91.5 276.5v664q0 90 -34 120.5t-163 44.5l12 80h482l8 -80l-127 -24q-37 -8 -39 -29q-2 -8 -2 -24v-736q0 -252 -137.5 -398t-411.5 -146q-528 0 -528 528v702 q0 63 -24 86t-132 41zM475 1702q0 45 30 77.5t77 32.5q109 0 108 -110q0 -47 -30.5 -81t-77.5 -34q-106 0 -107 115zM870 1702q0 45 30 77.5t77 32.5q109 0 108 -110q0 -47 -30.5 -81t-77.5 -34q-106 0 -107 115z" />
<glyph unicode="&#xdd;" horiz-adv-x="1224" d="M10 1337l15 82h481l8 -84l-137 -37q-14 -2 -14.5 -12t14.5 -35l235 -452q20 -35 21 -60h20l228 441q43 82 43 100t-26 29.5t-97 27.5l12 82h406l8 -86q-90 -18 -125 -39.5t-60 -70.5l-323 -635v-430q0 -47 41 -54l158 -24l-9 -80h-563l-12 80q129 20 157.5 41.5 t28.5 85.5v364l-368 678q-27 45 -48.5 58.5t-93.5 29.5zM516 1608l356 264l123 -105l-16 -43l-412 -190z" />
<glyph unicode="&#xde;" horiz-adv-x="1161" d="M90 80q109 18 132.5 41t23.5 86v1005q0 63 -23.5 86t-132.5 41l12 80h502l8 -80l-127 -24q-41 -8 -41 -53v-121h220q229 0 344.5 -100.5t115.5 -278.5t-153.5 -304t-440.5 -126h-86v-174q0 -49 41 -54l179 -24l-9 -80h-553zM444 440h50q145 0 260 56q66 31 104.5 95 t38.5 151t-28.5 147.5t-75.5 89.5q-89 53 -191 53h-117q-41 0 -41 -45v-547z" />
<glyph unicode="&#xdf;" horiz-adv-x="1386" d="M92 80q100 20 122 41.5t22 75.5v632h-134l-8 89l101 24q27 6 35 22.5t10 51.5t6 63.5t17 92t32.5 111.5t58.5 107.5t88 98.5q121 92 284 92t271.5 -90t108.5 -246q0 -82 -48 -151.5t-105.5 -110.5t-105.5 -99.5t-48 -119.5q0 -57 45 -96q18 -14 28.5 -23.5t38 -24 t39.5 -18.5l45 -20q145 -68 198.5 -113t73 -89t19.5 -99q0 -127 -103.5 -213t-272.5 -86t-273 49q-4 20 -4 102t18 125l99 6q14 -96 21 -118.5t20 -26.5q69 -29 151 -29q168 0 168 135q0 70 -59 111q-53 39 -121 70q-174 76 -234.5 143t-60.5 170q0 111 102 211q41 43 82 84 q102 98 102.5 209.5t-63 180.5t-160.5 69q-139 0 -208.5 -138.5t-69.5 -380.5v-954h-316z" />
<glyph unicode="&#xe0;" horiz-adv-x="1048" d="M86 252q0 154 131 229.5t426 77.5v66q0 266 -192 266q-92 0 -116 -26.5t-50 -174.5l-111 12q-16 63 -16 132t2 90q121 76 317.5 75.5t273 -76t76.5 -249.5v-471q0 -53 26 -75t130 -42l-12 -66l-246 -26q-20 0 -43 39t-23 72.5t3 50.5l-17 6l-24 -37q-96 -143 -265 -143 q-115 0 -192.5 71.5t-77.5 198.5zM256 1458v47l164 62l219 -367l-72 -51zM285 270q0 -74 38.5 -111.5t110.5 -37.5t162 69q47 37 47 78v201q-184 -4 -271 -49.5t-87 -149.5z" />
<glyph unicode="&#xe1;" horiz-adv-x="1048" d="M86 252q0 154 131 229.5t426 77.5v66q0 266 -192 266q-92 0 -116 -26.5t-50 -174.5l-111 12q-16 63 -16 132t2 90q121 76 317.5 75.5t273 -76t76.5 -249.5v-471q0 -53 26 -75t130 -42l-12 -66l-246 -26q-20 0 -43 39t-23 72.5t3 50.5l-17 6l-24 -37q-96 -143 -265 -143 q-115 0 -192.5 71.5t-77.5 198.5zM285 270q0 -74 38.5 -111.5t110.5 -37.5t162 69q47 37 47 78v201q-184 -4 -271 -49.5t-87 -149.5zM387 1200l219 367l164 -62v-47l-311 -309z" />
<glyph unicode="&#xe2;" horiz-adv-x="1048" d="M86 252q0 154 131 229.5t426 77.5v66q0 266 -192 266q-92 0 -116 -26.5t-50 -174.5l-111 12q-16 63 -16 132t2 90q121 76 317.5 75.5t273 -76t76.5 -249.5v-471q0 -53 26 -75t130 -42l-12 -66l-246 -26q-20 0 -43 39t-23 72.5t3 50.5l-17 6l-24 -37q-96 -143 -265 -143 q-115 0 -192.5 71.5t-77.5 198.5zM188 1200l242 346h129l241 -346l-71 -51l-236 242l-233 -242zM285 270q0 -74 38.5 -111.5t110.5 -37.5t162 69q47 37 47 78v201q-184 -4 -271 -49.5t-87 -149.5z" />
<glyph unicode="&#xe3;" horiz-adv-x="1048" d="M86 252q0 154 131 229.5t426 77.5v66q0 266 -192 266q-92 0 -116 -26.5t-50 -174.5l-111 12q-16 63 -16 132t2 90q121 76 317.5 75.5t273 -76t76.5 -249.5v-471q0 -53 26 -75t130 -42l-12 -66l-246 -26q-20 0 -43 39t-23 72.5t3 50.5l-17 6l-24 -37q-96 -143 -265 -143 q-115 0 -192.5 71.5t-77.5 198.5zM139 1253q66 115 113 162t94 47t179 -43t182 -43t120 88l52 -26q-43 -100 -87 -159.5t-90.5 -59.5t-182.5 43t-185 43q-78 0 -148 -86zM285 270q0 -74 38.5 -111.5t110.5 -37.5t162 69q47 37 47 78v201q-184 -4 -271 -49.5t-87 -149.5z" />
<glyph unicode="&#xe4;" horiz-adv-x="1048" d="M86 252q0 154 131 229.5t426 77.5v66q0 266 -192 266q-92 0 -116 -26.5t-50 -174.5l-111 12q-16 63 -16 132t2 90q121 76 317.5 75.5t273 -76t76.5 -249.5v-471q0 -53 26 -75t130 -42l-12 -66l-246 -26q-20 0 -43 39t-23 72.5t3 50.5l-17 6l-24 -37q-96 -143 -265 -143 q-115 0 -192.5 71.5t-77.5 198.5zM186 1343q0 45 30 78t77 33q109 0 108 -111q0 -47 -30.5 -80.5t-77.5 -33.5q-106 0 -107 114zM285 270q0 -74 38.5 -111.5t110.5 -37.5t162 69q47 37 47 78v201q-184 -4 -271 -49.5t-87 -149.5zM582 1343q0 45 29.5 78t76.5 33 q109 0 109 -111q0 -47 -31 -80.5t-78 -33.5q-106 0 -106 114z" />
<glyph unicode="&#xe5;" horiz-adv-x="1048" d="M86 252q0 154 131 229.5t426 77.5v66q0 266 -192 266q-92 0 -116 -26.5t-50 -174.5l-111 12q-16 63 -16 132t2 90q121 76 317.5 75.5t273 -76t76.5 -249.5v-471q0 -53 26 -75t130 -42l-12 -66l-246 -26q-20 0 -43 39t-23 72.5t3 50.5l-17 6l-24 -37q-96 -143 -265 -143 q-115 0 -192.5 71.5t-77.5 198.5zM285 270q0 -74 38.5 -111.5t110.5 -37.5t162 69q47 37 47 78v201q-184 -4 -271 -49.5t-87 -149.5zM297 1347.5q0 92.5 54.5 145.5t150.5 53t147.5 -50t51.5 -140t-54.5 -145.5t-150.5 -55.5t-147.5 50t-51.5 142.5zM398 1346 q0 -103 96 -103q49 0 76.5 32t27.5 83q0 100 -94 100q-49 0 -77.5 -30.5t-28.5 -81.5z" />
<glyph unicode="&#xe6;" horiz-adv-x="1562" d="M86 264q0 139 130 217t427 97v47q0 266 -192 266q-92 0 -115.5 -27t-50.5 -174l-111 12q-16 63 -16 132t2 90q121 76 346 75.5t289 -139.5q133 139 335 139q348 0 365 -428l-53 -39l-594 -32q0 -379 323 -379q141 0 277 69l43 -67q-68 -55 -176.5 -98t-227.5 -43 q-260 0 -372 219h-13q-51 -94 -140 -156.5t-204.5 -62.5t-193.5 71.5t-78 210.5zM285 270q0 -72 38.5 -109.5t112.5 -37.5t160 67q47 37 47 78v219q-188 -18 -273 -66t-85 -151zM854 594l424 37q20 2 20 39q0 90 -48 155.5t-162.5 65.5t-167 -77t-66.5 -220z" />
<glyph unicode="&#xe7;" horiz-adv-x="958" d="M70 469.5q0 207.5 98 357.5q51 80 150.5 126t246 46t289.5 -57q2 -16 2 -105t-25 -175l-114 -13q-33 207 -62 219q-43 18 -153.5 18.5t-161.5 -75.5q-72 -109 -72 -308.5t87 -290.5t227.5 -91t271.5 90l57 -68q-166 -162 -390 -161.5t-337.5 140.5t-113.5 347.5z M402 -182l78 264l100 -27l-43 -153q33 6 72 6q66 0 111.5 -35t45.5 -96q0 -86 -95 -149.5t-259 -71.5l-8 63q195 27 194 119q0 33 -24.5 55.5t-70.5 22.5t-83 -21z" />
<glyph unicode="&#xe8;" horiz-adv-x="978" d="M70 480q0 216 131 367.5t346 151.5q348 0 364 -428l-53 -39l-594 -32q0 -379 324 -379q141 0 276 69l43 -67q-68 -55 -176 -98t-227 -43q-207 0 -320.5 141t-113.5 357zM213 1458v47l164 62l219 -367l-72 -51zM270 594l424 37q20 2 21 39q0 90 -48.5 155.5t-163 65.5 t-167 -77t-66.5 -220z" />
<glyph unicode="&#xe9;" horiz-adv-x="978" d="M70 480q0 216 131 367.5t346 151.5q348 0 364 -428l-53 -39l-594 -32q0 -379 324 -379q141 0 276 69l43 -67q-68 -55 -176 -98t-227 -43q-207 0 -320.5 141t-113.5 357zM270 594l424 37q20 2 21 39q0 90 -48.5 155.5t-163 65.5t-167 -77t-66.5 -220zM426 1200l219 367 l164 -62v-47l-312 -309z" />
<glyph unicode="&#xea;" horiz-adv-x="978" d="M70 480q0 216 131 367.5t346 151.5q348 0 364 -428l-53 -39l-594 -32q0 -379 324 -379q141 0 276 69l43 -67q-68 -55 -176 -98t-227 -43q-207 0 -320.5 141t-113.5 357zM197 1200l241 346h129l242 -346l-72 -51l-235 242l-234 -242zM270 594l424 37q20 2 21 39 q0 90 -48.5 155.5t-163 65.5t-167 -77t-66.5 -220z" />
<glyph unicode="&#xeb;" horiz-adv-x="978" d="M70 480q0 216 131 367.5t346 151.5q348 0 364 -428l-53 -39l-594 -32q0 -379 324 -379q141 0 276 69l43 -67q-68 -55 -176 -98t-227 -43q-207 0 -320.5 141t-113.5 357zM211 1343q0 45 30 78t77 33q109 0 108 -111q0 -47 -30.5 -80.5t-77.5 -33.5q-106 0 -107 114z M270 594l424 37q20 2 21 39q0 90 -48.5 155.5t-163 65.5t-167 -77t-66.5 -220zM607 1343q0 45 29.5 78t76.5 33q109 0 109 -111q0 -47 -31 -80.5t-78 -33.5q-106 0 -106 114z" />
<glyph unicode="&#xec;" horiz-adv-x="634" d="M33 1458v47l164 62l219 -367l-72 -51zM72 885l12 65q219 29 305 29l23 -21v-811q0 -25 11 -31.5t30 -11.5l100 -24l-8 -80h-449l-12 80q100 20 121.5 41.5t21.5 75.5v587q0 43 -32.5 62.5t-122.5 38.5z" />
<glyph unicode="&#xed;" horiz-adv-x="634" d="M72 885l12 65q219 29 305 29l23 -21v-811q0 -25 11 -31.5t30 -11.5l100 -24l-8 -80h-449l-12 80q100 20 121.5 41.5t21.5 75.5v587q0 43 -32.5 62.5t-122.5 38.5zM207 1200l219 367l164 -62v-47l-311 -309z" />
<glyph unicode="&#xee;" horiz-adv-x="634" d="M-10 1200l241 346h129l242 -346l-72 -51l-235 242l-234 -242zM72 885l12 65q219 29 305 29l23 -21v-811q0 -25 11 -31.5t30 -11.5l100 -24l-8 -80h-449l-12 80q100 20 121.5 41.5t21.5 75.5v587q0 43 -32.5 62.5t-122.5 38.5z" />
<glyph unicode="&#xef;" horiz-adv-x="634" d="M-6 1343q0 45 29.5 78t76.5 33q109 0 109 -111q0 -47 -31 -80.5t-78 -33.5q-106 0 -106 114zM72 885l12 65q219 29 305 29l23 -21v-811q0 -25 11 -31.5t30 -11.5l100 -24l-8 -80h-449l-12 80q100 20 121.5 41.5t21.5 75.5v587q0 43 -32.5 62.5t-122.5 38.5zM389 1343 q0 45 30 78t77 33q109 0 108 -111q0 -47 -30.5 -80.5t-77.5 -33.5q-106 0 -107 114z" />
<glyph unicode="&#xf0;" horiz-adv-x="1091" d="M66 479.5q0 235.5 125.5 377.5t353.5 142q100 0 188 -32q-66 219 -196 381l-232 -95l-80 72l244 100q-55 59 -121 109l107 57q68 -49 137 -114l260 108l82 -74l-270 -110q336 -385 335 -897q0 -240 -125.5 -381t-348 -141t-341 131t-118.5 366.5zM264 506q0 -182 74 -299 t201 -117t180 62q37 41 59.5 130t22.5 193q0 187 -75 301.5t-201 114.5t-179 -62q-37 -41 -59.5 -130t-22.5 -193z" />
<glyph unicode="&#xf1;" horiz-adv-x="1220" d="M72 903l12 66l264 26q14 0 29.5 -57t15.5 -100v-13l17 -6l24 29q129 152 316 151q131 0 206.5 -78.5t75.5 -220.5v-553q0 -25 11.5 -31.5t29.5 -11.5l101 -24l-9 -80h-438l-12 80q92 18 112.5 40.5t20.5 76.5v442q0 96 -35 154.5t-136.5 58.5t-219.5 -80l-27 -18 q-18 -20 -18 -76v-528q0 -23 7 -31t34 -15l90 -24l-8 -80h-439l-12 80q100 20 121.5 41.5t21.5 75.5v589q0 53 -25.5 75t-129.5 42zM260 1253q66 115 113 162t94 47t179 -43t182 -43t120 88l51 -26q-43 -100 -87 -159.5t-90 -59.5t-182 43t-185 43q-78 0 -148 -86z" />
<glyph unicode="&#xf2;" horiz-adv-x="1064" d="M66 479.5q0 235.5 125.5 377.5t348 142t341 -132t118.5 -367.5t-125.5 -376.5t-348 -141t-341 131t-118.5 366.5zM262 1458v47l164 62l219 -367l-72 -51zM264 506q0 -182 74 -299t201 -117t180 62q37 41 59.5 130t22.5 193q0 182 -74 299t-201 117t-180 -62 q-37 -41 -59.5 -130t-22.5 -193z" />
<glyph unicode="&#xf3;" horiz-adv-x="1064" d="M66 479.5q0 235.5 125.5 377.5t348 142t341 -132t118.5 -367.5t-125.5 -376.5t-348 -141t-341 131t-118.5 366.5zM264 506q0 -182 74 -299t201 -117t180 62q37 41 59.5 130t22.5 193q0 182 -74 299t-201 117t-180 -62q-37 -41 -59.5 -130t-22.5 -193zM416 1200l219 367 l164 -62v-47l-312 -309z" />
<glyph unicode="&#xf4;" horiz-adv-x="1064" d="M66 479.5q0 235.5 125.5 377.5t348 142t341 -132t118.5 -367.5t-125.5 -376.5t-348 -141t-341 131t-118.5 366.5zM215 1200l242 346h129l241 -346l-71 -51l-236 242l-233 -242zM264 506q0 -182 74 -299t201 -117t180 62q37 41 59.5 130t22.5 193q0 182 -74 299t-201 117 t-180 -62q-37 -41 -59.5 -130t-22.5 -193z" />
<glyph unicode="&#xf5;" horiz-adv-x="1064" d="M66 479.5q0 235.5 125.5 377.5t348 142t341 -132t118.5 -367.5t-125.5 -376.5t-348 -141t-341 131t-118.5 366.5zM162 1253q66 115 113 162t94 47t179 -43t182 -43t120 88l51 -26q-43 -100 -87 -159.5t-90 -59.5t-182 43t-185 43q-78 0 -148 -86zM264 506q0 -182 74 -299 t201 -117t180 62q37 41 59.5 130t22.5 193q0 182 -74 299t-201 117t-180 -62q-37 -41 -59.5 -130t-22.5 -193z" />
<glyph unicode="&#xf6;" horiz-adv-x="1064" d="M66 479.5q0 235.5 125.5 377.5t348 142t341 -132t118.5 -367.5t-125.5 -376.5t-348 -141t-341 131t-118.5 366.5zM209 1343q0 45 30 78t77 33q109 0 108 -111q0 -47 -30.5 -80.5t-77.5 -33.5q-106 0 -107 114zM264 506q0 -182 74 -299t201 -117t180 62q37 41 59.5 130 t22.5 193q0 182 -74 299t-201 117t-180 -62q-37 -41 -59.5 -130t-22.5 -193zM605 1343q0 45 29.5 78t76.5 33q109 0 109 -111q0 -47 -31 -80.5t-78 -33.5q-106 0 -106 114z" />
<glyph unicode="&#xf7;" horiz-adv-x="954" d="M92 500v108h770v-108h-770zM346 246q0 53 33 88t84 35q121 0 121 -117q0 -49 -34 -85t-86 -36t-85 31t-33 84zM346 884.5q0 53.5 33 88.5t84 35q121 0 121 -117q0 -49 -34 -85t-86 -36t-85 30.5t-33 84z" />
<glyph unicode="&#xf8;" horiz-adv-x="1064" d="M66 475q0 240 125.5 382t353.5 142q76 0 151 -20l101 192l112 -41l-104 -200q195 -125 194 -426q0 -240 -126 -381t-353 -141q-106 0 -186 30l-76 -147l-111 41l84 164q-166 129 -165 405zM264 477q0 -133 53 -237l320 620q-57 31 -123 31q-115 0 -168 -62 q-37 -41 -59.5 -130t-22.5 -222zM399 139q61 -49 164 -49t156 62q37 41 59.5 130t22.5 193q0 184 -74 299z" />
<glyph unicode="&#xf9;" horiz-adv-x="1181" d="M33 895l12 66q219 29 305 28l23 -20v-627q0 -213 162 -213q104 0 217 80q27 18 35 35.5t8 58.5v492q0 43 -33 62.5t-123 37.5l12 66q219 29 305 28l23 -20v-766q0 -53 25.5 -75t130.5 -42l-13 -66l-264 -28q-14 -2 -29.5 54t-15.5 97v13l-16 6l-25 -29 q-129 -152 -315 -151q-125 0 -197 66.5t-72 205.5v541q0 43 -32.5 62.5t-122.5 37.5zM283 1458v47l164 62l219 -367l-72 -51z" />
<glyph unicode="&#xfa;" horiz-adv-x="1181" d="M33 895l12 66q219 29 305 28l23 -20v-627q0 -213 162 -213q104 0 217 80q27 18 35 35.5t8 58.5v492q0 43 -33 62.5t-123 37.5l12 66q219 29 305 28l23 -20v-766q0 -53 25.5 -75t130.5 -42l-13 -66l-264 -28q-14 -2 -29.5 54t-15.5 97v13l-16 6l-25 -29 q-129 -152 -315 -151q-125 0 -197 66.5t-72 205.5v541q0 43 -32.5 62.5t-122.5 37.5zM481 1200l219 367l164 -62v-47l-311 -309z" />
<glyph unicode="&#xfb;" horiz-adv-x="1181" d="M33 895l12 66q219 29 305 28l23 -20v-627q0 -213 162 -213q104 0 217 80q27 18 35 35.5t8 58.5v492q0 43 -33 62.5t-123 37.5l12 66q219 29 305 28l23 -20v-766q0 -53 25.5 -75t130.5 -42l-13 -66l-264 -28q-14 -2 -29.5 54t-15.5 97v13l-16 6l-25 -29 q-129 -152 -315 -151q-125 0 -197 66.5t-72 205.5v541q0 43 -32.5 62.5t-122.5 37.5zM256 1200l242 346h129l241 -346l-71 -51l-236 242l-233 -242z" />
<glyph unicode="&#xfc;" horiz-adv-x="1181" d="M33 895l12 66q219 29 305 28l23 -20v-627q0 -213 162 -213q104 0 217 80q27 18 35 35.5t8 58.5v492q0 43 -33 62.5t-123 37.5l12 66q219 29 305 28l23 -20v-766q0 -53 25.5 -75t130.5 -42l-13 -66l-264 -28q-14 -2 -29.5 54t-15.5 97v13l-16 6l-25 -29 q-129 -152 -315 -151q-125 0 -197 66.5t-72 205.5v541q0 43 -32.5 62.5t-122.5 37.5zM254 1343q0 45 29.5 78t76.5 33q109 0 109 -111q0 -47 -31 -80.5t-78 -33.5q-106 0 -106 114zM649 1343q0 45 30 78t77 33q109 0 108 -111q0 -47 -30.5 -80.5t-77.5 -33.5 q-106 0 -107 114z" />
<glyph unicode="&#xfd;" horiz-adv-x="1024" d="M8 889l12 80h422l9 -80l-125 -31q-14 -2 -15 -16q0 -2 8 -27l209 -547q10 -29 11 -63h16l217 563q12 33 12 54.5t-29.5 35.5t-105.5 31l13 80h364l8 -80q-90 -20 -96 -35l-324 -803q-41 -102 -65.5 -156.5t-67.5 -122t-90 -104.5q-117 -88 -282 -117q-53 53 -54 168 q0 12 4 41q49 -6 136.5 -6t138.5 21.5t123 224.5l-340 815q-16 39 -29.5 49t-79.5 25zM474 1200l219 367l164 -62v-47l-312 -309z" />
<glyph unicode="&#xfe;" horiz-adv-x="1159" d="M41 1487l12 65q219 29 305 29l23 -20v-576q0 -113 -14 -160l16 -6l20 27q119 154 285 153.5t272.5 -132.5t106.5 -361.5t-121 -376.5t-338 -147q-154 0 -221 53l-14 -6q8 -45 8 -90v-222q0 -27 11 -34t30 -9l186 -24l-8 -80h-534l-13 80q100 20 122 41.5t22 75.5v1619 q0 43 -33 62.5t-123 38.5zM381 199q84 -100 262 -101q88 0 139 58q86 96 86 299.5t-64.5 300t-162.5 96.5t-205 -70q-55 -37 -55 -94v-489z" />
<glyph unicode="&#xff;" horiz-adv-x="1024" d="M8 889l12 80h422l9 -80l-125 -31q-14 -2 -15 -16q0 -2 8 -27l209 -547q10 -29 11 -63h16l217 563q12 33 12 54.5t-29.5 35.5t-105.5 31l13 80h364l8 -80q-90 -20 -96 -35l-324 -803q-41 -102 -65.5 -156.5t-67.5 -122t-90 -104.5q-117 -88 -282 -117q-53 53 -54 168 q0 12 4 41q49 -6 136.5 -6t138.5 21.5t123 224.5l-340 815q-16 39 -29.5 49t-79.5 25zM238 1343q0 45 29.5 78t76.5 33q109 0 109 -111q0 -47 -31 -80.5t-78 -33.5q-106 0 -106 114zM633 1343q0 45 29.5 78t76.5 33q109 0 109 -111q0 -47 -31 -80.5t-78 -33.5 q-106 0 -106 114z" />
<glyph unicode="&#x152;" horiz-adv-x="2033" d="M72 697.5q0 332.5 178 536.5t493 204q39 0 136 -4q338 -14 999 -15q12 -76 12 -150.5t-4 -168.5l-117 -15q-29 141 -41 177t-28 38q-49 6 -125 9l-309 6v-551h307q27 0 65 145l64 -6q0 -150 5 -209t6 -71.5t8.5 -59.5t9.5 -65l-74 -13q-33 117 -44 143.5t-26 26.5h-321 v-551l176 2q266 4 301 29q20 14 86 240l113 -8q2 -27 2 -121t-23 -246q-760 0 -969.5 -9t-238.5 -9q-305 0 -473 191.5t-168 524zM299 727q0 -283 114.5 -460t332 -177t266.5 49q55 55 55 168v817q0 129 -65.5 167t-239.5 38q-463 0 -463 -602z" />
<glyph unicode="&#x153;" horiz-adv-x="1710" d="M66 479.5q0 235.5 125.5 377.5t362.5 142t349 -198q127 199 375 198q348 0 364 -428l-53 -39l-594 -32q0 -209 80 -294t226.5 -85t281.5 69l43 -67q-68 -55 -176.5 -98t-226.5 -43q-229 0 -338 186q-117 -186 -365 -186q-217 0 -335.5 131t-118.5 366.5zM264 506 q0 -182 74 -299t201 -117t180 62q78 92 78 299.5t-72 323.5t-199 116t-180 -62q-37 -41 -59.5 -130t-22.5 -193zM1001 594l424 37q20 2 21 39q0 90 -48 155.5t-163 65.5t-167.5 -77t-66.5 -220z" />
<glyph unicode="&#x178;" horiz-adv-x="1224" d="M10 1337l15 82h481l8 -84l-137 -37q-14 -2 -14.5 -12t14.5 -35l235 -452q20 -35 21 -60h20l228 441q43 82 43 100t-26 29.5t-97 27.5l12 82h406l8 -86q-90 -18 -125 -39.5t-60 -70.5l-323 -635v-430q0 -47 41 -54l158 -24l-9 -80h-563l-12 80q129 20 157.5 41.5 t28.5 85.5v364l-368 678q-27 45 -48.5 58.5t-93.5 29.5zM346 1702q0 45 30 77.5t77 32.5q109 0 108 -110q0 -47 -30.5 -81t-77.5 -34q-106 0 -107 115zM741 1702q0 45 30 77.5t77 32.5q109 0 108 -110q0 -47 -30.5 -81t-77.5 -34q-106 0 -107 115z" />
<glyph unicode="&#x2c6;" horiz-adv-x="612" d="M0 1200l242 346h129l241 -346l-71 -51l-236 242l-233 -242z" />
<glyph unicode="&#x2dc;" horiz-adv-x="739" d="M0 1253q66 115 113 162t94 47t179 -43t182 -43t120 88l51 -26q-43 -100 -87 -159.5t-90 -59.5t-182 43t-185 43q-78 0 -148 -86z" />
<glyph unicode="&#x2000;" horiz-adv-x="941" />
<glyph unicode="&#x2001;" horiz-adv-x="1882" />
<glyph unicode="&#x2002;" horiz-adv-x="941" />
<glyph unicode="&#x2003;" horiz-adv-x="1882" />
<glyph unicode="&#x2004;" horiz-adv-x="627" />
<glyph unicode="&#x2005;" horiz-adv-x="470" />
<glyph unicode="&#x2006;" horiz-adv-x="313" />
<glyph unicode="&#x2007;" horiz-adv-x="313" />
<glyph unicode="&#x2008;" horiz-adv-x="235" />
<glyph unicode="&#x2009;" horiz-adv-x="376" />
<glyph unicode="&#x200a;" horiz-adv-x="104" />
<glyph unicode="&#x2010;" horiz-adv-x="604" d="M70 416l24 151l447 29l-33 -127z" />
<glyph unicode="&#x2011;" horiz-adv-x="604" d="M70 416l24 151l447 29l-33 -127z" />
<glyph unicode="&#x2012;" horiz-adv-x="604" d="M70 416l24 151l447 29l-33 -127z" />
<glyph unicode="&#x2013;" horiz-adv-x="1024" d="M-4 446l24 109h1008l-24 -109h-1008z" />
<glyph unicode="&#x2014;" horiz-adv-x="2048" d="M-4 446l24 109h2032l-24 -109h-2032z" />
<glyph unicode="&#x2018;" horiz-adv-x="440" d="M86 1215.5q0 82.5 50.5 180t148.5 173.5l55 -53q-96 -115 -96 -218q0 -37 32.5 -76.5t32.5 -77.5t-31.5 -64.5t-78.5 -26.5t-80 40t-33 122.5z" />
<glyph unicode="&#x2019;" horiz-adv-x="440" d="M100 1106q96 115 97 217q0 37 -33 77t-33 78t32 64.5t79 26.5t79.5 -40t32.5 -123t-50 -180t-148 -173z" />
<glyph unicode="&#x201a;" horiz-adv-x="479" d="M113 -231q96 115 96 217q0 37 -33 76.5t-33 77.5t32 64.5t79 26.5t80 -39.5t33 -122.5t-50.5 -180.5t-148.5 -173.5z" />
<glyph unicode="&#x201c;" horiz-adv-x="831" d="M86 1215.5q0 82.5 50.5 180t148.5 173.5l55 -53q-96 -115 -96 -218q0 -37 32.5 -76.5t32.5 -77.5t-31.5 -64.5t-78.5 -26.5t-80 40t-33 122.5zM477 1215.5q0 82.5 50.5 180t148.5 173.5l55 -53q-96 -115 -96 -218q0 -37 32.5 -76.5t32.5 -77.5t-31.5 -64.5t-78.5 -26.5 t-80 40t-33 122.5z" />
<glyph unicode="&#x201d;" horiz-adv-x="831" d="M100 1106q96 115 97 217q0 37 -33 77t-33 78t32 64.5t79 26.5t79.5 -40t32.5 -123t-50 -180t-148 -173zM492 1106q96 115 96 217q0 37 -33 77t-33 78t32 64.5t79 26.5t79.5 -40t32.5 -123t-50 -180t-148 -173z" />
<glyph unicode="&#x201e;" horiz-adv-x="870" d="M113 -231q96 115 96 217q0 37 -33 76.5t-33 77.5t32 64.5t79 26.5t80 -39.5t33 -122.5t-50.5 -180.5t-148.5 -173.5zM504 -231q96 115 96 217q0 37 -32.5 76.5t-32.5 77.5t31.5 64.5t78.5 26.5t80 -39.5t33 -122.5t-50.5 -180.5t-148.5 -173.5z" />
<glyph unicode="&#x2022;" horiz-adv-x="702" d="M82 513q0 120 72.5 195.5t193.5 75.5t197 -62.5t76 -185t-74 -199.5t-194 -77t-195.5 66.5t-75.5 186.5z" />
<glyph unicode="&#x2026;" horiz-adv-x="1761" d="M195 101.5q0 56.5 33.5 93t88.5 36.5q127 0 127 -122q0 -54 -34.5 -90.5t-90 -36.5t-90 31.5t-34.5 88zM756 101.5q0 56.5 33.5 93t89.5 36.5q127 0 127 -122q0 -54 -35 -90.5t-90.5 -36.5t-90 31.5t-34.5 88zM1317 101.5q0 56.5 33.5 93t89.5 36.5q127 0 127 -122 q0 -54 -35 -90.5t-90.5 -36.5t-90 31.5t-34.5 88z" />
<glyph unicode="&#x202f;" horiz-adv-x="376" />
<glyph unicode="&#x2039;" horiz-adv-x="581" d="M123 500v32l334 349l43 -33l-215 -332l215 -356l-43 -33z" />
<glyph unicode="&#x203a;" horiz-adv-x="581" d="M82 160l215 356l-215 332l43 33l334 -349v-32l-334 -373z" />
<glyph unicode="&#x205f;" horiz-adv-x="470" />
<glyph unicode="&#x20ac;" horiz-adv-x="1198" d="M20 504v104h768v-104h-385q37 -207 135.5 -307.5t229.5 -100.5q55 0 103.5 18.5t60.5 32.5q25 18 69 263l113 -4q0 -156 -22 -332q-53 -35 -162 -63.5t-221 -28.5q-231 0 -365.5 143t-171.5 379h-152zM20 754v104h152q39 250 180.5 415t399.5 165q92 0 195.5 -20.5 t135.5 -37.5q12 -76 12.5 -158.5t-3.5 -185.5l-117 -16q-45 238 -80 262q-12 14 -68.5 30.5t-109.5 16.5q-143 0 -224 -127t-100 -344h395v-104h-768z" />
<glyph unicode="&#x2122;" horiz-adv-x="2091" d="M61 1227q0 109 29 196h678q27 -80 31 -196l-78 -8q-31 88 -37 102t-19.5 18t-76.5 4h-72v-663q0 -27 27 -31l98 -14l-4 -66h-401l-11 66q80 12 98.5 25.5t18.5 50.5v632h-70q-63 0 -77.5 -4t-20.5 -18t-33 -102zM895 635q72 14 87 23.5t17 46.5l35 577q2 39 -14 51.5 t-84 24.5l6 65h289l207 -542l8 -33h14q0 6 6 24l215 551h295l6 -65l-84 -15q-25 -4 -24 -26v-6l37 -631q4 -27 26 -31l82 -14l-6 -66h-373l-6 66q63 10 80 23.5t17 41.5v11l-15 508q0 23 4 47l-12 2l-240 -633h-118l-222 590q-6 16 -6 35h-10l-27 -543q0 -41 13.5 -54.5 t34.5 -17.5l59 -10l-4 -66h-285z" />
<glyph unicode="&#xe000;" horiz-adv-x="972" d="M0 0v973h973v-973h-973z" />
</font>
</defs>
</svg>
